<?xml version="1.0" encoding="utf-8"?>
<!-- Generator: Adobe Illustrator 22.0.1, SVG Export Plug-In . SVG Version: 6.00 Build 0)  -->
<svg version="1.1" id="Layer_1" xmlns="http://www.w3.org/2000/svg" xmlns:xlink="http://www.w3.org/1999/xlink" x="0px" y="0px"
	 viewBox="0 0 175 136" style="enable-background:new 0 0 175 136;" xml:space="preserve">
<style type="text/css">
	.st0{fill:#FFFFFF;}
</style>
<path class="st0" d="M162.9,72.1c10.3-10.4,13.9-21.8,10.3-33.1c-2.8-8.6-9.6-16.7-19.7-23.4c-9.9-6.5-22.1-11.1-35.2-13.4
	C108.5,0.6,83.2-2.4,57.8,6C46.9,9.7,37.5,15,30,21.8c-8.5,7.7-14.6,17.4-18.2,28.8c-2.2,7-2.7,14-1.4,20.7c-3.2-3.2-6-6.7-8.2-10.5
	L2,60.3l-1.6,0.9l0.3,0.5c2.8,4.6,6.3,8.9,10.6,12.8c1.1,3.9,2.8,7.6,5,11.2c4.8,7.6,12.2,14.3,21.5,19.5c8.5,4.8,18.1,8,27.8,9.5
	c-0.2,2.7-0.3,4.4-0.4,5c-0.7,10.4,0.5,15.3,0.6,15.5l0.1,0.6l1.8-0.5l-0.1-0.5c0,0-1.2-4.8-0.5-14.9c0-0.1,0.1-1.8,0.4-4.9
	c5.2,0.7,10.6,1,16.2,1c14.8,0,29.3-2.4,41.8-6.9c14.4-5.2,25.5-12.8,32.9-22.6l0.3-0.5l-1.5-1.1l-0.3,0.5
	c-18.5,24.6-59,31.6-89.2,27.8c0.2-3.3,0.6-7.7,0.9-12.7c0.7-0.1,1.5-0.4,2.1-0.9c0.7-0.5,1.3-1.3,1.8-2.2
	c10.2,0.8,20.6,0.5,30.8-0.7c0.3,0.9,0.7,1.7,1.2,2.6l0.3,0.5l1.6-0.9l-0.3-0.5c-0.4-0.6-0.7-1.3-1-1.9c5.3-0.7,10.4-1.6,15.4-2.8
	C138.7,89.1,153.4,81.7,162.9,72.1z M81.3,62.1c1.1,7.5,0.3,12.8-5.8,16.1c-0.1,0-0.1,0.1-0.2,0.1l-0.1,0l0,0.1
	c-1.5,0.8-3.2,1.4-5.2,1.9l0.3-3.9c2.2-2.4,4.5-5.1,7.3-8.6C79,66,80.2,64.1,81.3,62.1z M79.6,41.5c1.5,1.4,2.6,3.1,3.1,5.2
	c0.6,2.5,0.4,5.6-0.6,8.9C81.5,52.2,80.7,47.5,79.6,41.5z M70.5,73.3c1.3-16.9,2.2-28.6,2.8-34.8c0.9,0.1,1.8,0.3,2.7,0.7
	c0.5,0.2,1,0.5,1.4,0.7c1.6,9,2.7,15.4,3.3,19c-1.2,2.7-2.8,5.4-4.7,7.7C74,69.2,72.2,71.4,70.5,73.3z M76.8,37.5
	c-1.1-0.5-2.2-0.8-3.3-0.9c0.2-1.6,0.3-2.7,0.4-3.1c0.4-2.3,0.8-5.3,1.1-8c0.6,3.3,1.3,7.6,2.1,12.1C77,37.6,76.9,37.6,76.8,37.5z
	 M66.9,97.8c-0.2-0.3-0.5-0.7-0.7-1.2c0.2,0,0.5,0.1,0.7,0.1C66.9,97.1,66.9,97.4,66.9,97.8z M62.7,83.8c0.1,4.5,0.4,8,1,10.7
	c-4.7-0.7-9.3-1.5-13.7-2.6c1.5-0.7,3-1.4,4.4-2.2C57.2,88.1,60,86.1,62.7,83.8z M65.7,81.1c0.9-0.8,1.7-1.7,2.6-2.6l-0.2,2.2
	C67.4,80.9,66.6,81,65.7,81.1z M68,82.6c-0.3,4.2-0.6,8.4-0.9,12.3c-0.4,0-0.7-0.1-1.1-0.1c-0.1,0-0.2,0-0.4,0c-0.7-2.8-1-7-1-11.5
	C65.6,83,66.8,82.8,68,82.6z M53.6,88c-2.2,1.2-4.4,2.2-6.5,3.1c-2.8-0.8-5.6-1.6-8.2-2.6c2.9-1.3,7.3-2.3,11.7-3.2l1.4-0.3
	c2.6-0.6,5.3-0.9,8-1.2C57.8,85.4,55.7,86.8,53.6,88z M44.2,92.1c-3.5,1.1-6.3,1.3-7.7,0.6c-0.4-0.2-0.7-0.5-0.7-1
	c-0.1-0.8,0.3-1.5,1.1-2.1C39.2,90.5,41.7,91.4,44.2,92.1z M69.9,82.2c1.8-0.4,3.4-0.9,4.9-1.6c-0.1,0.9-0.2,1.9-0.2,2.9
	c-0.8,5.2-1.9,9.2-3.1,11.8c-0.8-0.1-1.7-0.2-2.5-0.2C69.2,91,69.5,86.6,69.9,82.2z M27.5,85.5c2.4,1.2,4.9,2.3,7.5,3.4
	c-0.8,0.9-1.2,1.9-1,3.1c0.1,1.1,0.7,1.9,1.7,2.4c2.4,1.3,7,0.4,11.7-1.4c5.4,1.5,11.1,2.6,16.9,3.4c0.6,1.9,1.4,3.1,2.5,3.6
	c-0.4,5-0.7,9.4-0.9,12.8c-20.2-3-38.9-14-47.9-28.1c-1.6-2.5-2.9-5.2-3.9-7.9C17.9,80,22.5,83,27.5,85.5z M68.8,96.9
	c0.5,0.1,1.1,0.1,1.6,0.2c-0.3,0.4-0.6,0.7-0.9,1c-0.3,0.2-0.6,0.4-0.8,0.4C68.7,98,68.7,97.4,68.8,96.9z M75.7,87.3
	c0.7,0.7,1.5,1,2.6,1c3.3,0,5.3-2.2,6.3-3.7c0.7,0.9,1.8,2,3.7,2.1c2.4,0.2,4.9-1.8,6.5-3.4c0.5,1,1.5,2.1,3.2,2.5
	c1.4,0.3,2.8-0.5,4-1.4c-0.4,2.7-0.5,6.5,0.7,10.5c-9.5,1.1-19.4,1.4-29.3,0.6C74.3,93.4,75.1,90.7,75.7,87.3z M104.4,82
	c0.1-0.5-0.1-0.9-0.5-1.2l0,0l0,0c0,0,0,0,0,0c-0.4-0.2-0.9-0.1-1.2,0.3c-1.2,1.5-2.9,3-4.2,2.8c-1.7-0.3-2.2-1.9-2.3-2.4
	c-0.1-0.4-0.4-0.6-0.7-0.7c-0.4-0.1-0.7,0-1,0.3c-1.3,1.5-4,3.9-5.9,3.8c-2-0.2-2.7-1.9-2.9-2.4c-0.1-0.4-0.5-0.7-0.9-0.7
	c-0.4,0-0.8,0.2-1,0.6c-0.3,0.7-1.8,4.1-5.4,4.1c-0.6,0-1.1-0.2-1.4-0.6c-0.4-0.5-0.6-1.2-0.6-2.2c0.3-1.9,0.5-3.4,0.5-4.2
	c7.1-4.1,7.5-11.1,5.9-20.1l0-0.3c1.4-3.4,2.9-8.4,1.8-12.9c-0.8-3.1-2.5-5.6-5.3-7.4c-1.7-10.1-3.4-19.7-3.4-19.9l-1.1-6.6L73.9,19
	c0,0.1-0.9,8.9-1.9,14.2c-0.1,0.5-0.2,1.7-0.4,3.4c-4,0.3-8,2.9-11.7,7.3c-3.5,4.3-6.2,9.9-7.4,15.4c-1.3,6.1-0.6,11.4,1.9,15
	l0.3,0.5l1.5-1.1l-0.3-0.5c-4.9-6.9-1.1-20.2,5.5-28.1c3.2-3.9,6.7-6.2,10.1-6.6c-0.6,6.6-1.6,19.1-3,37c-1.3,1.5-2.6,2.8-3.9,4
	c0.1-3.8,0.3-7.8,0.6-11.3l0.1-0.6l-1.8-0.2l-0.1,0.6c0,0.1-0.6,6.3-0.7,13.2c-0.1,0.1-0.2,0.2-0.3,0.3c-0.7,0.1-1.3,0.2-2,0.2
	l-0.2,0c-2.9,0.3-5.9,0.7-8.8,1.3l-1.4,0.3c-5.5,1.2-10.6,2.3-13.6,4.2c-9.3-3.6-17.2-8.3-23.6-14.1c-1.9-7.2-1.7-14.8,0.7-22.5
	C28.8,2.5,86.4-1.3,118,4c12.9,2.2,24.8,6.7,34.5,13.1c9.8,6.4,16.3,14.2,19,22.4c3.4,10.6,0,21.4-9.8,31.2
	c-12.2,12.3-33.4,20.7-57.1,23.8C102.8,89.1,103.9,83.8,104.4,82z"/>
</svg>
