<?xml version="1.0" encoding="utf-8"?>
<!-- Generator: Adobe Illustrator 22.0.1, SVG Export Plug-In . SVG Version: 6.00 Build 0)  -->
<svg version="1.1" id="Layer_1" xmlns="http://www.w3.org/2000/svg" xmlns:xlink="http://www.w3.org/1999/xlink" x="0px" y="0px"
	 viewBox="0 0 226.7 276.7" style="enable-background:new 0 0 226.7 276.7;" xml:space="preserve">
<style type="text/css">
	.st0{fill:#B0946E;}
	.st1{fill:#FFFFFF;}
</style>
<g>
	<g>
		<path class="st0" d="M42.3,84.3h-0.8c0.2-1,0.2-1.9,0.2-2.7c0-1.2-0.2-2.3-0.6-3c-0.5-1-1.2-1.7-2.1-2.2c-0.9-0.5-1.9-0.8-3-0.8
			c-2.1,0-4.2,1-6.2,3s-3.6,4.5-4.8,7.6c-1.2,3-1.9,6-1.9,8.8c0,2.5,0.5,4.3,1.5,5.6c1,1.3,2.3,1.9,4,1.9c1.1,0,2.3-0.3,3.6-0.8
			c1.3-0.5,2.4-1.3,3.3-2.2c0.7-0.7,1.2-1.4,1.7-2.3c0.5-0.9,1.1-2.1,1.7-3.8h0.8c-1.2,4.4-2,7.5-2.3,9.3h-0.8
			c0.1-0.5,0.1-1,0.1-1.3c0-0.7-0.2-1-0.5-1c-0.2,0-0.4,0.1-0.8,0.3c-1.3,0.9-2.5,1.5-3.5,1.9c-1,0.4-2.3,0.6-3.8,0.6
			c-2.9,0-5.1-0.8-6.6-2.3c-1.6-1.5-2.4-3.8-2.4-6.7c0-3,0.7-5.9,2.2-8.9c1.5-3,3.5-5.5,6.1-7.4c2.6-2,5.4-2.9,8.5-2.9
			c1.5,0,2.6,0.2,3.4,0.6c0.8,0.4,1.6,1,2.3,1.9c0.2,0.2,0.4,0.3,0.6,0.3c0.2,0,0.5-0.2,0.7-0.6c0.2-0.4,0.5-1,0.8-1.8h0.8
			C43.9,77.6,43.1,80.6,42.3,84.3z"/>
		<path class="st0" d="M50.7,85.2c1.4-3,3.3-5.4,5.7-7.4s5.2-2.9,8.3-2.9c2.9,0,5.1,0.8,6.7,2.4c1.6,1.6,2.4,3.9,2.4,6.9
			c0,2.9-0.7,5.8-2.1,8.8c-1.4,3-3.3,5.4-5.8,7.4c-2.5,1.9-5.2,2.9-8.3,2.9c-2.9,0-5.1-0.8-6.7-2.4c-1.6-1.6-2.4-3.9-2.4-6.8
			C48.7,91.1,49.4,88.1,50.7,85.2z M58.8,78.3c-1.8,1.9-3.3,4.2-4.4,7.2s-1.7,5.9-1.7,9c0,2.5,0.5,4.5,1.5,5.9
			c1,1.4,2.3,2.2,3.9,2.2c1.9,0,3.8-0.9,5.6-2.8c1.8-1.9,3.3-4.2,4.4-7.2c1.1-2.9,1.7-5.9,1.7-9c0-2.5-0.5-4.5-1.5-5.9
			c-1-1.4-2.3-2.2-3.9-2.2C62.5,75.6,60.6,76.5,58.8,78.3z"/>
		<path class="st0" d="M109.7,74.2c0.4,0.4,0.5,0.8,0.5,1.4c0,0.7-0.2,1.3-0.6,1.9s-1,0.9-1.7,0.9c-0.5,0-0.9-0.1-1.1-0.4
			c-0.2-0.3-0.3-0.6-0.3-1.1s0.1-0.8,0.3-1.3c0.2-0.4,0.5-0.8,0.9-1.2h-0.1c-1.3,0-2.3,0.7-3.2,2c-1.1,1.7-2.3,4.7-3.5,9
			s-2.6,10.1-4.2,17.5h-0.8l-8.8-24.8c-1.3,6.5-2.4,11.9-3.6,16.4c-1.1,4.4-2.2,7.4-3.2,8.7c-0.6,0.7-1.2,1.3-1.8,1.8
			c-0.6,0.4-1.4,0.7-2.3,0.7c-1.5,0-2.3-0.7-2.3-2c0-0.7,0.2-1.3,0.6-1.9s1-0.8,1.7-0.8c0.5,0,0.9,0.1,1.1,0.4
			c0.2,0.3,0.3,0.6,0.3,1.1s-0.1,0.8-0.3,1.3s-0.5,0.8-0.9,1.2h0.1c1.3,0,2.4-0.7,3.2-2c1-1.5,1.9-4.2,3-8.1c1-3.9,2.1-8.9,3.4-15.1
			c0.2-0.7,0.2-1.3,0.2-1.7c0-0.6-0.2-1-0.6-1.2c-0.4-0.2-1.2-0.3-2.4-0.4l0.2-0.8c0.8,0.1,2,0.1,3.4,0.1c1.2,0,2.2,0,3.1-0.1
			l7.3,21.3c1.1-4.9,2.2-9.2,3.2-12.8c1.1-3.6,2.1-6.2,3.2-7.8c1.1-1.6,2.5-2.5,4.2-2.5C108.8,73.6,109.4,73.8,109.7,74.2z"/>
		<path class="st0" d="M141.4,75.4l-0.2,0.8c-1,0.1-1.7,0.2-2.1,0.3s-0.8,0.5-1.1,0.9c-0.3,0.4-0.5,1.1-0.8,2.1l-5.1,19.1
			c-0.2,1-0.3,1.6-0.3,1.9c0,0.5,0.2,0.9,0.6,1.1c0.4,0.2,1.1,0.3,2.1,0.3l-0.2,0.8c-1.1-0.1-2.7-0.1-4.9-0.1c-2.1,0-3.7,0-4.9,0.1
			l0.2-0.8c0.9-0.1,1.6-0.2,2.1-0.3s0.8-0.4,1.1-0.9c0.3-0.4,0.5-1.1,0.8-2.1l2.5-9.3h-12.4l-2.5,9.3c-0.2,1-0.3,1.6-0.3,1.9
			c0,0.5,0.2,0.9,0.6,1.1s1.1,0.3,2.1,0.3l-0.2,0.8c-1.2-0.1-2.8-0.1-4.9-0.1c-2.2,0-3.8,0-4.9,0.1l0.2-0.8c0.9-0.1,1.6-0.2,2-0.3
			c0.5-0.2,0.8-0.5,1.1-0.9c0.3-0.4,0.5-1.2,0.8-2.1l5.1-19.1c0.2-0.9,0.3-1.5,0.3-1.9c0-0.6-0.2-0.9-0.6-1.1c-0.4-0.2-1-0.3-2-0.3
			l0.2-0.8c1.1,0.1,2.7,0.1,4.9,0.1c2.1,0,3.7,0,4.9-0.1l-0.2,0.8c-1,0.1-1.7,0.2-2.1,0.3c-0.5,0.2-0.8,0.5-1.1,0.9
			c-0.3,0.4-0.5,1.1-0.8,2.1l-2.4,9.1h12.4l2.4-9.1c0.2-0.8,0.3-1.4,0.3-1.9c0-0.6-0.2-0.9-0.6-1.1c-0.4-0.2-1.1-0.3-2-0.3l0.2-0.8
			c1.2,0.1,2.8,0.1,4.9,0.1C138.7,75.5,140.3,75.5,141.4,75.4z"/>
		<path class="st0" d="M167.1,75.4c-0.7,1.9-1.2,3.4-1.5,4.6c-0.3,0.9-0.5,1.7-0.5,2.4h-0.9c0.2-1.5,0.3-2.5,0.3-3.1
			c0-1.1-0.3-1.9-0.8-2.3c-0.6-0.4-1.6-0.7-3-0.7h-2.8c-0.9,0-1.6,0.1-2.1,0.2c-0.5,0.1-0.8,0.4-1.1,0.9c-0.3,0.4-0.6,1.1-0.8,2.1
			l-2.4,9.1h2.5c0.9,0,1.6-0.2,2.2-0.6c0.6-0.4,1.1-0.9,1.4-1.5c0.3-0.6,0.7-1.3,1-2.2c0.1-0.3,0.2-0.5,0.3-0.8h0.9
			c-0.5,1.7-1,3.2-1.3,4.6l-0.2,0.9c-0.4,1.4-0.8,3.2-1.2,5.5h-0.9l0.1-0.8c0-0.2,0.1-0.5,0.1-0.8s0.1-0.7,0.1-1
			c0-0.8-0.2-1.4-0.6-1.8c-0.4-0.4-1.1-0.7-2.1-0.7h-2.5l-2.5,9.3c-0.2,0.8-0.3,1.4-0.3,1.9c0,0.5,0.2,0.9,0.6,1.1
			c0.4,0.2,1.1,0.3,2,0.3h2.8c1.6,0,2.9-0.2,3.8-0.6c1-0.4,1.7-1.1,2.4-2c0.6-0.9,1.3-2.3,1.9-4.1h0.9c-0.3,0.7-0.6,1.7-0.8,2.8
			c-0.4,1.4-0.8,3.1-1,4.9c-1.7-0.1-4.7-0.1-8.8-0.1c-4.9,0-8.7,0-11.1,0.1l0.2-0.8c0.9-0.1,1.6-0.2,2.1-0.3
			c0.4-0.2,0.8-0.4,1.1-0.9c0.3-0.4,0.6-1.1,0.8-2.1l5.1-19.1c0.2-0.8,0.3-1.5,0.3-1.9c0-0.5-0.2-0.9-0.6-1.1c-0.4-0.2-1-0.3-2-0.3
			l0.2-0.8c2.5,0.1,6.2,0.1,11.2,0.1C163.1,75.5,165.6,75.5,167.1,75.4z"/>
		<path class="st0" d="M194.4,84.3h-0.8c0.2-1,0.2-1.9,0.2-2.7c0-1.2-0.2-2.3-0.6-3c-0.5-1-1.2-1.7-2.1-2.2c-0.9-0.5-1.9-0.8-3-0.8
			c-2.1,0-4.2,1-6.2,3s-3.6,4.5-4.8,7.6c-1.2,3-1.9,6-1.9,8.8c0,2.5,0.5,4.3,1.5,5.6c1,1.3,2.3,1.9,4,1.9c1.1,0,2.3-0.3,3.6-0.8
			c1.3-0.5,2.4-1.3,3.3-2.2c0.7-0.7,1.2-1.4,1.7-2.3c0.5-0.9,1.1-2.1,1.7-3.8h0.8c-1.2,4.4-2,7.5-2.3,9.3h-0.8
			c0.1-0.5,0.1-1,0.1-1.3c0-0.7-0.2-1-0.5-1c-0.2,0-0.4,0.1-0.8,0.3c-1.3,0.9-2.5,1.5-3.5,1.9c-1,0.4-2.3,0.6-3.8,0.6
			c-2.9,0-5.1-0.8-6.6-2.3c-1.6-1.5-2.4-3.8-2.4-6.7c0-3,0.7-5.9,2.2-8.9c1.5-3,3.5-5.5,6.1-7.4c2.6-2,5.4-2.9,8.5-2.9
			c1.5,0,2.6,0.2,3.4,0.6c0.8,0.4,1.6,1,2.3,1.9c0.2,0.2,0.4,0.3,0.6,0.3c0.2,0,0.5-0.2,0.7-0.6c0.2-0.4,0.5-1,0.8-1.8h0.8
			C196,77.6,195.2,80.6,194.4,84.3z M179.6,105.5c0.6-0.2,1.3-0.3,2-0.3c0.6,0,1.1,0.1,1.5,0.4c0.4,0.3,0.5,0.6,0.5,1.1
			c0,1-0.6,1.8-1.9,2.4c-1.2,0.6-2.6,0.8-4,0.8c-0.8,0-1.6-0.1-2.3-0.3c-0.7-0.2-1.2-0.4-1.6-0.6l0.3-0.6c0.8,0.3,1.9,0.5,3.1,0.5
			c0.8,0,1.7-0.2,2.6-0.5c0.9-0.3,1.3-0.8,1.3-1.5c0-0.6-0.5-0.9-1.5-0.9c-0.5,0-1,0.1-1.6,0.3l1.9-3.9h1L179.6,105.5z"/>
		<path class="st0" d="M218.8,101.3c0.4,0.4,0.8,0.6,1.2,0.6l-0.2,0.8c-1-0.1-2.4-0.1-4.2-0.1c-2.1,0-3.6,0-4.6,0.1l0.2-0.8
			c0.9-0.1,1.5-0.2,2-0.3c0.5-0.2,0.8-0.5,1-0.9c0.2-0.4,0.3-1.1,0.3-2l-0.3-6.3h-9.5l-2.9,4.1c-1.2,1.7-1.8,3-1.8,3.8
			c0,1.1,1,1.6,2.9,1.7l-0.2,0.8c-1.4-0.1-2.9-0.1-4.4-0.1c-1.1,0-2.1,0-2.9,0.1l0.2-0.8c1.2-0.3,2.5-1.4,3.9-3.4L216,75.2h0.6
			l1.5,24.3C218.2,100.3,218.4,100.9,218.8,101.3z M214.1,91.6l-0.7-11.7l-8.3,11.7H214.1z"/>
		<path class="st0" d="M48.2,110.7c0.3,0.3,0.4,0.8,0.4,1.3c0,0.6-0.2,1.1-0.5,1.6c-0.3,0.5-0.8,0.9-1.3,1.2
			c-1.4,0.8-3.4,1.3-6.1,1.3c-1.1,0-2.4-0.1-3.9-0.3l-5.7,21.4c-0.2,0.8-0.3,1.5-0.3,2c0,0.6,0.2,1.1,0.7,1.3s1.3,0.4,2.5,0.4
			l-0.2,0.8c-1.3-0.1-3.3-0.1-5.7-0.1c-2.5,0-4.4,0-5.6,0.1l0.2-0.8c1.1-0.1,1.9-0.2,2.5-0.4c0.6-0.2,1.1-0.6,1.4-1.1s0.7-1.2,1-2.2
			l5.8-21.9c-2.1-0.3-3.7-0.4-5-0.4c-2.2,0-3.7,0.2-4.3,0.7c0.2,0.3,0.4,0.6,0.5,1c0.1,0.4,0.2,0.8,0.2,1.2c0,0.6-0.2,1.1-0.5,1.6
			s-0.8,0.7-1.4,0.7c-0.5,0-1-0.2-1.3-0.5c-0.3-0.3-0.4-0.8-0.4-1.4c0-1.3,0.7-2.3,2-3c1.2-0.6,2.9-0.9,5.2-0.9c1,0,2,0,2.9,0.1
			c0.9,0.1,2.1,0.2,3.5,0.4c1.3,0.2,2.5,0.3,3.4,0.4c0.9,0.1,1.9,0.1,2.9,0.1c1.2,0,2.1-0.1,2.9-0.2c0.8-0.1,1.5-0.3,2.1-0.7
			c-0.6-0.6-1-1.4-1-2.2c0-0.6,0.2-1.1,0.5-1.5c0.3-0.4,0.8-0.6,1.4-0.6C47.5,110.2,47.9,110.4,48.2,110.7z"/>
		<path class="st0" d="M50.3,124.2c1.4-3,3.3-5.4,5.7-7.4s5.2-2.9,8.3-2.9c2.9,0,5.1,0.8,6.7,2.4c1.6,1.6,2.4,3.9,2.4,6.9
			c0,2.9-0.7,5.8-2.1,8.8c-1.4,3-3.3,5.4-5.8,7.4c-2.5,1.9-5.2,2.9-8.3,2.9c-2.9,0-5.1-0.8-6.7-2.4c-1.6-1.6-2.4-3.9-2.4-6.8
			C48.2,130.1,48.9,127.1,50.3,124.2z M58.4,117.3c-1.8,1.9-3.3,4.2-4.4,7.2s-1.7,5.9-1.7,9c0,2.5,0.5,4.5,1.5,5.9
			c1,1.4,2.3,2.2,3.9,2.2c1.9,0,3.8-0.9,5.6-2.8c1.8-1.9,3.3-4.2,4.4-7.2c1.1-2.9,1.7-5.9,1.7-9c0-2.5-0.5-4.5-1.5-5.9
			c-1-1.4-2.3-2.2-3.9-2.2C62.1,114.6,60.2,115.5,58.4,117.3z"/>
		<path class="st0" d="M102.5,132.1c-1.6,2.9-3.8,5.2-6.6,7c-2.8,1.8-5.9,2.6-9.3,2.6l-2.2,0c-1.4-0.1-2.5-0.1-3.2-0.1
			c-2.1,0-3.6,0-4.6,0.1l0.1-0.8c0.9-0.1,1.5-0.2,2-0.3c0.5-0.2,0.8-0.5,1.1-0.9c0.3-0.4,0.5-1.2,0.8-2.1l5.1-19.1
			c0.2-1,0.3-1.6,0.3-1.9c0-0.5-0.2-0.9-0.6-1.1c-0.4-0.2-1-0.3-2-0.3l0.1-0.8c0.9,0.1,2.1,0.1,3.7,0.1l3.3,0
			c1.7-0.1,2.9-0.1,3.5-0.1c3.6,0,6.3,0.7,8.2,2.2c1.8,1.4,2.7,3.6,2.7,6.4C104.9,126.1,104.1,129.2,102.5,132.1z M94.3,138.4
			c2.3-1.7,4-4.1,5.1-7c1.2-2.9,1.7-6.1,1.7-9.5c0-2.3-0.7-4.1-2-5.2c-1.3-1.1-3.4-1.7-6.3-1.7c-0.8,0-1.4,0.1-1.9,0.3
			c-0.5,0.2-0.8,0.5-1.1,1c-0.3,0.5-0.5,1.2-0.8,2.1l-5.1,19.3c-0.2,0.9-0.3,1.6-0.3,1.9c0,0.5,0.2,0.8,0.5,1.1
			c0.3,0.2,1,0.3,1.8,0.3C89.3,141,92.1,140.2,94.3,138.4z"/>
		<path class="st0" d="M128.1,140.3c0.4,0.4,0.8,0.6,1.2,0.6l-0.2,0.8c-1-0.1-2.4-0.1-4.2-0.1c-2.1,0-3.6,0-4.6,0.1l0.2-0.8
			c0.9-0.1,1.5-0.2,2-0.3c0.5-0.2,0.8-0.5,1-0.9c0.2-0.4,0.3-1.1,0.3-2l-0.3-6.3H114l-2.9,4.1c-1.2,1.7-1.8,3-1.8,3.8
			c0,1.1,1,1.6,2.9,1.7l-0.2,0.8c-1.4-0.1-2.9-0.1-4.4-0.1c-1.1,0-2.1,0-2.9,0.1l0.2-0.8c1.2-0.3,2.5-1.4,3.9-3.4l16.6-23.4h0.6
			l1.5,24.3C127.5,139.3,127.8,139.9,128.1,140.3z M123.4,130.6l-0.7-11.7l-8.3,11.7H123.4z"/>
		<path class="st0" d="M155.7,122h-0.8c0.2-0.7,0.2-1.5,0.2-2.2c0-1.5-0.5-2.8-1.3-3.7c-0.9-1-2.3-1.5-4.1-1.5
			c-1.6,0-2.9,0.4-3.9,1.2c-1,0.8-1.5,2-1.5,3.7c0,1.3,0.4,2.4,1.2,3.5c0.8,1.1,2,2.3,3.5,3.7c1.1,1,2,1.9,2.7,2.6
			c0.7,0.7,1.2,1.6,1.7,2.5c0.5,0.9,0.7,1.9,0.7,2.9c0,1.7-0.5,3.1-1.4,4.2c-1,1.1-2.2,2-3.7,2.5c-1.5,0.5-3,0.8-4.6,0.8
			c-1.4,0-2.4-0.2-3.3-0.5c-0.8-0.3-1.5-0.8-2.2-1.3c-0.5-0.4-1-0.6-1.4-0.6c-0.3,0-0.6,0.2-0.8,0.5s-0.5,0.8-0.8,1.6h-0.8
			c0.4-1,0.8-2.2,1.2-3.5c0.4-1.4,0.9-3.3,1.4-5.7h0.8c-0.2,1.2-0.3,2.2-0.3,2.9c0,1.9,0.5,3.3,1.5,4.4s2.6,1.5,4.7,1.5
			c1.7,0,3.1-0.4,4.1-1.2c1-0.8,1.5-2,1.5-3.6c0-1-0.2-1.9-0.6-2.7c-0.4-0.8-0.9-1.5-1.4-2.2c-0.6-0.6-1.3-1.4-2.3-2.4
			c-1-1-1.8-1.8-2.4-2.5c-0.6-0.7-1.1-1.5-1.5-2.4c-0.4-0.9-0.6-2-0.6-3.1c0-1.6,0.4-3,1.2-4.1c0.8-1.1,1.9-2,3.2-2.6
			c1.3-0.6,2.7-0.9,4.1-0.9c1.1,0,2,0.1,2.7,0.4c0.8,0.3,1.5,0.7,2.3,1.2c0.6,0.5,1,0.7,1.3,0.7c0.2,0,0.4-0.2,0.6-0.5
			c0.2-0.3,0.4-0.8,0.7-1.6h0.8C157,116.5,156.3,119.1,155.7,122z"/>
		<path class="st0" d="M193.9,140.3c0.4,0.4,0.8,0.6,1.2,0.6l-0.2,0.8c-1-0.1-2.4-0.1-4.2-0.1c-2.1,0-3.6,0-4.6,0.1l0.2-0.8
			c0.9-0.1,1.5-0.2,2-0.3c0.5-0.2,0.8-0.5,1-0.9c0.2-0.4,0.3-1.1,0.3-2l-0.3-6.3h-9.5l-2.9,4.1c-1.2,1.7-1.8,3-1.8,3.8
			c0,1.1,1,1.6,2.9,1.7l-0.2,0.8c-1.4-0.1-2.9-0.1-4.4-0.1c-1.1,0-2.1,0-2.9,0.1l0.2-0.8c1.2-0.3,2.5-1.4,3.9-3.4l16.6-23.4h0.6
			l1.5,24.3C193.3,139.3,193.5,139.9,193.9,140.3z M189.2,130.6l-0.7-11.7l-8.3,11.7H189.2z"/>
		<path class="st0" d="M221.5,122h-0.8c0.2-0.7,0.2-1.5,0.2-2.2c0-1.5-0.5-2.8-1.3-3.7c-0.9-1-2.3-1.5-4.1-1.5
			c-1.6,0-2.9,0.4-3.9,1.2c-1,0.8-1.5,2-1.5,3.7c0,1.3,0.4,2.4,1.2,3.5c0.8,1.1,2,2.3,3.5,3.7c1.1,1,2,1.9,2.7,2.6
			c0.7,0.7,1.2,1.6,1.7,2.5c0.5,0.9,0.7,1.9,0.7,2.9c0,1.7-0.5,3.1-1.4,4.2c-1,1.1-2.2,2-3.7,2.5c-1.5,0.5-3,0.8-4.6,0.8
			c-1.4,0-2.4-0.2-3.3-0.5c-0.8-0.3-1.5-0.8-2.2-1.3c-0.5-0.4-1-0.6-1.4-0.6c-0.3,0-0.6,0.2-0.8,0.5s-0.5,0.8-0.8,1.6h-0.8
			c0.4-1,0.8-2.2,1.2-3.5c0.4-1.4,0.9-3.3,1.4-5.7h0.8c-0.2,1.2-0.3,2.2-0.3,2.9c0,1.9,0.5,3.3,1.5,4.4s2.6,1.5,4.7,1.5
			c1.7,0,3.1-0.4,4.1-1.2c1-0.8,1.5-2,1.5-3.6c0-1-0.2-1.9-0.6-2.7c-0.4-0.8-0.9-1.5-1.4-2.2c-0.6-0.6-1.3-1.4-2.3-2.4
			c-1-1-1.8-1.8-2.4-2.5c-0.6-0.7-1.1-1.5-1.5-2.4c-0.4-0.9-0.6-2-0.6-3.1c0-1.6,0.4-3,1.2-4.1c0.8-1.1,1.9-2,3.2-2.6
			c1.3-0.6,2.7-0.9,4.1-0.9c1.1,0,2,0.1,2.7,0.4c0.8,0.3,1.5,0.7,2.3,1.2c0.6,0.5,1,0.7,1.3,0.7c0.2,0,0.4-0.2,0.6-0.5
			c0.2-0.3,0.4-0.8,0.7-1.6h0.8C222.8,116.5,222.1,119.1,221.5,122z"/>
		<path class="st0" d="M39.2,155c1.3,1,1.9,2.5,1.9,4.3c0,2-0.6,3.8-1.8,5.4s-2.9,2.8-5.1,3.7c-2.2,0.9-4.7,1.3-7.6,1.3h-1.2
			l-1.8,6.9c-0.1,0.2-0.1,0.5-0.2,0.9c-0.1,0.4-0.2,0.8-0.2,1c0,0.5,0.2,0.8,0.6,1c0.4,0.2,1.1,0.3,2.1,0.3l-0.2,0.8
			c-1.2-0.1-2.8-0.1-4.8-0.1c-2.3,0-3.9,0-5,0.1l0.2-0.8c0.9-0.1,1.6-0.2,2.1-0.3s0.8-0.4,1.1-0.9c0.3-0.4,0.5-1.1,0.8-2.1l5.1-19.1
			c0.2-0.9,0.3-1.5,0.3-1.9c0-0.5-0.2-0.9-0.6-1.1c-0.4-0.2-1.1-0.3-2-0.4l0.2-0.8c1,0.1,2.6,0.1,4.7,0.1c1.2,0,2.2,0,2.8,0l2.9,0
			C36,153.4,37.9,154,39.2,155z M34.9,166.2c1.6-1.9,2.4-4.4,2.4-7.5c0-1.5-0.4-2.6-1.2-3.4s-2-1.1-3.7-1.1c-0.8,0-1.4,0.1-1.8,0.3
			c-0.4,0.2-0.8,0.5-1.1,1c-0.3,0.5-0.5,1.1-0.8,2l-3,11.5H27C30.6,169,33.2,168.1,34.9,166.2z"/>
		<path class="st0" d="M68.2,153.4c-0.7,1.9-1.2,3.4-1.5,4.6c-0.3,0.9-0.5,1.7-0.5,2.4h-0.9c0.2-1.5,0.3-2.5,0.3-3.1
			c0-1.1-0.3-1.9-0.8-2.3c-0.6-0.4-1.6-0.7-3-0.7H59c-0.9,0-1.6,0.1-2.1,0.2c-0.5,0.1-0.8,0.4-1.1,0.9c-0.3,0.4-0.6,1.1-0.8,2.1
			l-2.4,9.1h2.5c0.9,0,1.6-0.2,2.2-0.6c0.6-0.4,1.1-0.9,1.4-1.5c0.3-0.6,0.7-1.3,1-2.2c0.1-0.3,0.2-0.5,0.3-0.8h0.9
			c-0.5,1.7-1,3.2-1.3,4.6l-0.2,0.9c-0.4,1.4-0.8,3.2-1.2,5.5h-0.9l0.1-0.8c0-0.2,0.1-0.5,0.1-0.8s0.1-0.7,0.1-1
			c0-0.8-0.2-1.4-0.6-1.8c-0.4-0.4-1.1-0.7-2.1-0.7h-2.5l-2.5,9.3c-0.2,0.8-0.3,1.4-0.3,1.9c0,0.5,0.2,0.9,0.6,1.1
			c0.4,0.2,1.1,0.3,2,0.3H55c1.6,0,2.9-0.2,3.8-0.6c1-0.4,1.7-1.1,2.4-2c0.6-0.9,1.3-2.3,1.9-4.1H64c-0.3,0.7-0.6,1.7-0.8,2.8
			c-0.4,1.4-0.8,3.1-1,4.9c-1.7-0.1-4.7-0.1-8.8-0.1c-4.9,0-8.7,0-11.1,0.1l0.2-0.8c0.9-0.1,1.6-0.2,2.1-0.3
			c0.4-0.2,0.8-0.4,1.1-0.9c0.3-0.4,0.6-1.1,0.8-2.1l5.1-19.1c0.2-0.8,0.3-1.5,0.3-1.9c0-0.5-0.2-0.9-0.6-1.1c-0.4-0.2-1-0.3-2-0.3
			l0.2-0.8c2.5,0.1,6.2,0.1,11.2,0.1C64.1,153.5,66.7,153.5,68.2,153.4z"/>
		<path class="st0" d="M95.5,162.3h-0.8c0.2-1,0.2-1.9,0.2-2.7c0-1.2-0.2-2.3-0.6-3c-0.5-1-1.2-1.7-2.1-2.2c-0.9-0.5-1.9-0.8-3-0.8
			c-2.1,0-4.2,1-6.2,3s-3.6,4.5-4.8,7.6c-1.2,3-1.9,6-1.9,8.8c0,2.5,0.5,4.3,1.5,5.6c1,1.3,2.3,1.9,4,1.9c1.1,0,2.3-0.3,3.6-0.8
			c1.3-0.5,2.4-1.3,3.3-2.2c0.7-0.7,1.2-1.4,1.7-2.3c0.5-0.9,1.1-2.1,1.7-3.8H93c-1.2,4.4-2,7.5-2.3,9.3h-0.8c0.1-0.5,0.1-1,0.1-1.3
			c0-0.7-0.2-1-0.5-1c-0.2,0-0.4,0.1-0.8,0.3c-1.3,0.9-2.5,1.5-3.5,1.9c-1,0.4-2.3,0.6-3.8,0.6c-2.9,0-5.1-0.8-6.6-2.3
			c-1.6-1.5-2.4-3.8-2.4-6.7c0-3,0.7-5.9,2.2-8.9c1.5-3,3.5-5.5,6.1-7.4c2.6-2,5.4-2.9,8.5-2.9c1.5,0,2.6,0.2,3.4,0.6
			c0.8,0.4,1.6,1,2.3,1.9c0.2,0.2,0.4,0.3,0.6,0.3c0.2,0,0.5-0.2,0.7-0.6c0.2-0.4,0.5-1,0.8-1.8h0.8
			C97.1,155.6,96.2,158.6,95.5,162.3z M80.7,183.5c0.6-0.2,1.3-0.3,2-0.3c0.6,0,1.1,0.1,1.5,0.4c0.4,0.3,0.5,0.6,0.5,1.1
			c0,1-0.6,1.8-1.9,2.4c-1.2,0.6-2.6,0.8-4,0.8c-0.8,0-1.6-0.1-2.3-0.3c-0.7-0.2-1.2-0.4-1.6-0.6l0.3-0.6c0.8,0.3,1.9,0.5,3.1,0.5
			c0.8,0,1.7-0.2,2.6-0.5c0.9-0.3,1.3-0.8,1.3-1.5c0-0.6-0.5-0.9-1.5-0.9c-0.5,0-1,0.1-1.6,0.3l1.9-3.9h1L80.7,183.5z"/>
		<path class="st0" d="M119.9,179.3c0.4,0.4,0.8,0.6,1.2,0.6l-0.2,0.8c-1-0.1-2.4-0.1-4.2-0.1c-2.1,0-3.6,0-4.6,0.1l0.2-0.8
			c0.9-0.1,1.5-0.2,2-0.3c0.5-0.2,0.8-0.5,1-0.9c0.2-0.4,0.3-1.1,0.3-2l-0.3-6.3h-9.5l-2.9,4.1c-1.2,1.7-1.8,3-1.8,3.8
			c0,1.1,1,1.6,2.9,1.7l-0.2,0.8c-1.4-0.1-2.9-0.1-4.4-0.1c-1.1,0-2.1,0-2.9,0.1l0.2-0.8c1.2-0.3,2.5-1.4,3.9-3.4l16.6-23.4h0.6
			l1.5,24.3C119.3,178.3,119.5,178.9,119.9,179.3z M115.2,169.6l-0.7-11.7l-8.3,11.7H115.2z"/>
		<path class="st0" d="M147.4,161h-0.8c0.2-0.7,0.2-1.5,0.2-2.2c0-1.5-0.5-2.8-1.3-3.7c-0.9-1-2.3-1.5-4.1-1.5
			c-1.6,0-2.9,0.4-3.9,1.2c-1,0.8-1.5,2-1.5,3.7c0,1.3,0.4,2.4,1.2,3.5c0.8,1.1,2,2.3,3.5,3.7c1.1,1,2,1.9,2.7,2.6
			c0.7,0.7,1.2,1.6,1.7,2.5c0.5,0.9,0.7,1.9,0.7,2.9c0,1.7-0.5,3.1-1.4,4.2c-1,1.1-2.2,2-3.7,2.5c-1.5,0.5-3,0.8-4.6,0.8
			c-1.4,0-2.4-0.2-3.3-0.5c-0.8-0.3-1.5-0.8-2.2-1.3c-0.5-0.4-1-0.6-1.4-0.6c-0.3,0-0.6,0.2-0.8,0.5s-0.5,0.8-0.8,1.6h-0.8
			c0.4-1,0.8-2.2,1.2-3.5c0.4-1.4,0.9-3.3,1.4-5.7h0.8c-0.2,1.2-0.3,2.2-0.3,2.9c0,1.9,0.5,3.3,1.5,4.4s2.6,1.5,4.7,1.5
			c1.7,0,3.1-0.4,4.1-1.2c1-0.8,1.5-2,1.5-3.6c0-1-0.2-1.9-0.6-2.7c-0.4-0.8-0.9-1.5-1.4-2.2c-0.6-0.6-1.3-1.4-2.3-2.4
			c-1-1-1.8-1.8-2.4-2.5c-0.6-0.7-1.1-1.5-1.5-2.4c-0.4-0.9-0.6-2-0.6-3.1c0-1.6,0.4-3,1.2-4.1c0.8-1.1,1.9-2,3.2-2.6
			c1.3-0.6,2.7-0.9,4.1-0.9c1.1,0,2,0.1,2.7,0.4c0.8,0.3,1.5,0.7,2.3,1.2c0.6,0.5,1,0.7,1.3,0.7c0.2,0,0.4-0.2,0.6-0.5
			c0.2-0.3,0.4-0.8,0.7-1.6h0.8C148.8,155.5,148,158.1,147.4,161z"/>
	</g>
	<g>
		<polygon class="st0" points="183.8,53.3 222,7.6 220.4,6.3 181.2,53.3 		"/>
		<polygon class="st0" points="31.1,233.4 2.9,267.2 4.5,268.5 33.7,233.4 		"/>
	</g>
</g>
<g>
	<rect x="15.3" y="196.9" class="st0" width="95.2" height="23.3"/>
	<g>
		<path class="st1" d="M41.9,206.8h-0.2c0.1-0.3,0.1-0.6,0.1-0.9c0-0.3-0.1-0.6-0.2-0.8c-0.3-0.5-0.7-0.7-1.3-0.7
			c-0.6,0-1.1,0.3-1.7,0.8c-0.5,0.5-1,1.2-1.3,2c-0.3,0.8-0.5,1.7-0.5,2.5c0,0.7,0.1,1.3,0.4,1.6c0.3,0.4,0.6,0.5,1.1,0.5
			c0.3,0,0.6-0.1,0.9-0.2c0.3-0.1,0.6-0.3,0.8-0.5c0.2-0.2,0.4-0.4,0.5-0.7c0.1-0.3,0.3-0.6,0.5-1.1h0.2c-0.3,1.3-0.6,2.2-0.6,2.6
			h-0.2c0-0.2,0-0.3,0-0.4c0-0.2,0-0.3-0.1-0.3c-0.1,0-0.1,0-0.2,0.1c-0.3,0.2-0.7,0.4-1,0.5c-0.3,0.1-0.7,0.2-1.1,0.2
			c-1,0-1.7-0.2-2.2-0.7c-0.5-0.5-0.7-1.1-0.7-2c0-0.9,0.2-1.7,0.7-2.5c0.5-0.8,1.1-1.5,1.9-2c0.8-0.5,1.7-0.8,2.7-0.8
			c0.4,0,0.7,0.1,1,0.2c0.2,0.1,0.5,0.3,0.7,0.5c0.1,0.1,0.1,0.1,0.2,0.1c0.1,0,0.3-0.2,0.4-0.7h0.2
			C42.4,204.9,42.1,205.7,41.9,206.8z"/>
		<path class="st1" d="M43.6,211.4c0,0.2,0.1,0.3,0.2,0.3c0.2,0,0.4-0.3,0.7-0.9l0.2-0.5h0.2l-0.3,0.8c-0.1,0.4-0.3,0.7-0.6,0.9
			c-0.3,0.2-0.5,0.3-0.9,0.3c-0.3,0-0.6-0.1-0.7-0.3c-0.2-0.2-0.3-0.4-0.3-0.7c0-0.2,0-0.5,0.1-0.8l1.7-5.7c0-0.1,0.1-0.2,0.1-0.3
			c0-0.1-0.1-0.3-0.2-0.3c-0.1-0.1-0.3-0.1-0.6-0.1l0.1-0.2c0.5,0,1,0,1.4-0.1c0.4-0.1,0.8-0.2,1.2-0.3l-2.3,7.8
			C43.6,211.2,43.6,211.3,43.6,211.4z"/>
		<path class="st1" d="M46.9,207c0-0.1-0.1-0.2-0.2-0.2s-0.3,0.1-0.4,0.2s-0.2,0.4-0.3,0.7l-0.2,0.6h-0.2l0.3-0.8
			c0.3-0.8,0.8-1.1,1.5-1.1c0.3,0,0.6,0.1,0.7,0.2s0.2,0.4,0.2,0.6c0,0.2,0,0.4-0.1,0.6l-1.2,3.4c0,0.1-0.1,0.2-0.1,0.3
			c0,0.2,0.1,0.2,0.2,0.2c0.1,0,0.2-0.1,0.3-0.2c0.1-0.1,0.2-0.4,0.4-0.7l0.2-0.5h0.2l-0.3,0.8c-0.3,0.8-0.8,1.1-1.5,1.1
			c-0.7,0-1-0.3-1-0.9c0-0.2,0.1-0.5,0.2-0.8l1.1-3.2C46.9,207.1,46.9,207,46.9,207z M47.6,203.8c0.2-0.2,0.5-0.3,0.8-0.3
			c0.3,0,0.5,0.1,0.6,0.2c0.1,0.1,0.2,0.3,0.2,0.5c0,0.3-0.1,0.5-0.3,0.7c-0.2,0.2-0.5,0.3-0.8,0.3c-0.3,0-0.5-0.1-0.6-0.2
			c-0.1-0.1-0.2-0.3-0.2-0.5C47.3,204.2,47.4,204,47.6,203.8z"/>
		<path class="st1" d="M53.1,213c0,0.1-0.1,0.2-0.1,0.3c0,0.2,0.1,0.3,0.2,0.4s0.3,0.1,0.5,0.1l-0.1,0.2l-0.3,0c-0.7,0-1.2,0-1.4,0
			c-0.3,0-0.8,0-1.6,0l0.1-0.2c0.3,0,0.6-0.1,0.7-0.2s0.3-0.3,0.4-0.6l0.7-2.6c-0.3,0.6-0.6,1.1-0.9,1.4s-0.6,0.4-1,0.4
			c-0.4,0-0.8-0.1-1-0.4c-0.2-0.3-0.3-0.7-0.3-1.3c0-0.6,0.1-1.2,0.4-1.9c0.3-0.7,0.7-1.3,1.2-1.7c0.5-0.5,1.1-0.7,1.7-0.7
			c0.2,0,0.4,0,0.6,0.1c0.2,0.1,0.3,0.2,0.4,0.3c0.4,0,0.9-0.2,1.4-0.5l0.2,0.1c-0.1,0.2-0.2,0.4-0.2,0.6L53.1,213z M53.2,206.8
			c-0.1-0.2-0.3-0.3-0.5-0.3c-0.3,0-0.7,0.2-1,0.7c-0.3,0.5-0.6,1.1-0.8,1.8c-0.2,0.7-0.3,1.3-0.3,1.8c0,0.3,0,0.4,0.1,0.5
			s0.2,0.2,0.3,0.2c0.2,0,0.4-0.1,0.6-0.4c0.2-0.3,0.4-0.6,0.6-1c0.2-0.4,0.4-0.9,0.5-1.4l0,0.2L53.2,206.8z"/>
		<path class="st1" d="M60.8,210.2h0.2l-0.3,0.8c-0.1,0.4-0.3,0.7-0.6,0.9c-0.3,0.2-0.6,0.3-0.9,0.3c-0.2,0-0.4,0-0.5-0.1
			c-0.1-0.1-0.2-0.2-0.3-0.3c-0.1-0.1-0.1-0.3-0.1-0.5s0-0.4,0.1-0.7l0.3-1.1c-0.3,0.7-0.6,1.2-0.8,1.6c-0.3,0.4-0.5,0.7-0.8,0.8
			c-0.3,0.2-0.6,0.2-0.9,0.2c-0.3,0-0.6-0.1-0.7-0.2s-0.2-0.4-0.2-0.7c0-0.2,0-0.5,0.1-0.8l1.1-3.2c0-0.1,0.1-0.2,0.1-0.3
			c0-0.2-0.1-0.2-0.2-0.2c-0.1,0-0.2,0.1-0.3,0.2c-0.1,0.1-0.2,0.4-0.3,0.7l-0.2,0.5h-0.2l0.3-0.8c0.3-0.8,0.8-1.1,1.5-1.1
			c0.7,0,1,0.3,1,0.9c0,0.2-0.1,0.5-0.2,0.8l-1,3c-0.1,0.2-0.1,0.4-0.1,0.5c0,0.2,0.1,0.3,0.2,0.3c0.2,0,0.5-0.2,0.8-0.6
			c0.3-0.4,0.6-1,0.9-1.7c0.3-0.7,0.6-1.5,0.8-2.3l0.2-0.6c0.7,0,1.2-0.1,1.6-0.2l-1.4,4.9c0,0.2-0.1,0.3-0.1,0.4
			c0,0.1,0.1,0.2,0.2,0.2c0.1,0,0.3-0.1,0.4-0.2c0.1-0.1,0.2-0.4,0.3-0.7L60.8,210.2z"/>
		<path class="st1" d="M65.6,208.7c-0.7,0.5-1.5,0.8-2.4,1.1c0,0.3-0.1,0.5-0.1,0.7c0,0.4,0.1,0.7,0.2,0.8c0.1,0.2,0.4,0.2,0.6,0.2
			c0.2,0,0.5-0.1,0.8-0.2c0.3-0.1,0.6-0.4,0.8-0.7l0.2,0.1c-0.3,0.4-0.6,0.8-1.1,1c-0.4,0.3-0.9,0.4-1.5,0.4c-0.5,0-0.9-0.1-1.2-0.4
			s-0.5-0.7-0.5-1.1c0-0.7,0.2-1.3,0.5-2s0.8-1.3,1.4-1.7c0.6-0.5,1.3-0.7,2-0.7c0.3,0,0.6,0.1,0.8,0.2s0.3,0.4,0.3,0.6
			C66.7,207.7,66.3,208.2,65.6,208.7z M64.6,206.9c-0.3,0.3-0.5,0.7-0.7,1.2c-0.2,0.5-0.4,1-0.5,1.5c0.5-0.2,0.9-0.5,1.2-0.7
			c0.3-0.3,0.5-0.6,0.7-0.9c0.2-0.3,0.3-0.7,0.3-1.1c0-0.1,0-0.2,0-0.3c0-0.1-0.1-0.1-0.1-0.1C65.1,206.4,64.8,206.6,64.6,206.9z"/>
		<path class="st1" d="M74.9,210.3h0.2l-0.3,0.8c-0.1,0.4-0.4,0.7-0.6,0.9c-0.3,0.2-0.5,0.3-0.8,0.3c-0.4,0-0.7-0.1-0.8-0.3
			c-0.1-0.1-0.2-0.3-0.2-0.5c0-0.2,0-0.4,0.1-0.7c-0.2,0.5-0.5,0.9-0.8,1.2s-0.6,0.4-1,0.4c-0.4,0-0.7-0.1-0.9-0.4
			c-0.2-0.2-0.3-0.6-0.3-1c0-0.7,0.2-1.3,0.5-2.1s0.8-1.3,1.3-1.8c0.5-0.5,1.1-0.7,1.6-0.7c0.2,0,0.4,0.1,0.5,0.2s0.2,0.3,0.2,0.5
			l0.2-0.5c0.6,0,1.1-0.1,1.6-0.2l-1.4,4.9c0,0.1-0.1,0.2-0.1,0.3c0,0.2,0.1,0.2,0.2,0.2c0.3,0,0.5-0.3,0.7-0.9L74.9,210.3z
			 M73.5,207.3c0,0,0-0.1,0-0.2c0-0.2,0-0.3-0.1-0.4c-0.1-0.1-0.2-0.1-0.3-0.1c-0.2,0-0.5,0.2-0.9,0.7c-0.3,0.4-0.6,1-0.8,1.7
			c-0.2,0.7-0.3,1.3-0.3,2c0,0.2,0,0.4,0.1,0.5c0,0.1,0.1,0.2,0.2,0.2c0.2,0,0.3-0.1,0.5-0.3c0.2-0.2,0.4-0.5,0.6-1s0.4-0.9,0.5-1.5
			l-0.1,0.3L73.5,207.3z"/>
		<path class="st1" d="M79.8,213c0,0.1-0.1,0.2-0.1,0.3c0,0.2,0.1,0.3,0.2,0.4s0.3,0.1,0.5,0.1l-0.1,0.2l-0.3,0c-0.7,0-1.2,0-1.4,0
			c-0.3,0-0.8,0-1.6,0l0.1-0.2c0.3,0,0.6-0.1,0.7-0.2s0.3-0.3,0.4-0.6l0.7-2.6c-0.3,0.6-0.6,1.1-0.9,1.4s-0.6,0.4-1,0.4
			c-0.4,0-0.8-0.1-1-0.4c-0.2-0.3-0.3-0.7-0.3-1.3c0-0.6,0.1-1.2,0.4-1.9c0.3-0.7,0.7-1.3,1.2-1.7c0.5-0.5,1.1-0.7,1.7-0.7
			c0.2,0,0.4,0,0.6,0.1c0.2,0.1,0.3,0.2,0.4,0.3c0.4,0,0.9-0.2,1.4-0.5l0.2,0.1c-0.1,0.2-0.2,0.4-0.2,0.6L79.8,213z M80,206.8
			c-0.1-0.2-0.3-0.3-0.5-0.3c-0.3,0-0.7,0.2-1,0.7c-0.3,0.5-0.6,1.1-0.8,1.8c-0.2,0.7-0.3,1.3-0.3,1.8c0,0.3,0,0.4,0.1,0.5
			s0.2,0.2,0.3,0.2c0.2,0,0.4-0.1,0.6-0.4c0.2-0.3,0.4-0.6,0.6-1c0.2-0.4,0.4-0.9,0.5-1.4l0,0.2L80,206.8z"/>
		<path class="st1" d="M87.6,210.2h0.2l-0.3,0.8c-0.1,0.4-0.3,0.7-0.6,0.9c-0.3,0.2-0.6,0.3-0.9,0.3c-0.2,0-0.4,0-0.5-0.1
			c-0.1-0.1-0.2-0.2-0.3-0.3c-0.1-0.1-0.1-0.3-0.1-0.5s0-0.4,0.1-0.7l0.3-1.1c-0.3,0.7-0.6,1.2-0.8,1.6c-0.3,0.4-0.5,0.7-0.8,0.8
			c-0.3,0.2-0.6,0.2-0.9,0.2c-0.3,0-0.6-0.1-0.7-0.2s-0.2-0.4-0.2-0.7c0-0.2,0-0.5,0.1-0.8l1.1-3.2c0-0.1,0.1-0.2,0.1-0.3
			c0-0.2-0.1-0.2-0.2-0.2c-0.1,0-0.2,0.1-0.3,0.2c-0.1,0.1-0.2,0.4-0.3,0.7l-0.2,0.5H82l0.3-0.8c0.3-0.8,0.8-1.1,1.5-1.1
			c0.7,0,1,0.3,1,0.9c0,0.2-0.1,0.5-0.2,0.8l-1,3c-0.1,0.2-0.1,0.4-0.1,0.5c0,0.2,0.1,0.3,0.2,0.3c0.2,0,0.5-0.2,0.8-0.6
			c0.3-0.4,0.6-1,0.9-1.7c0.3-0.7,0.6-1.5,0.8-2.3l0.2-0.6c0.7,0,1.2-0.1,1.6-0.2l-1.4,4.9c0,0.2-0.1,0.3-0.1,0.4
			c0,0.1,0.1,0.2,0.2,0.2c0.1,0,0.3-0.1,0.4-0.2c0.1-0.1,0.2-0.4,0.3-0.7L87.6,210.2z"/>
		<path class="st1" d="M89.9,207c0-0.1-0.1-0.2-0.2-0.2s-0.3,0.1-0.4,0.2s-0.2,0.4-0.3,0.7l-0.2,0.6h-0.2l0.3-0.8
			c0.3-0.8,0.8-1.1,1.5-1.1c0.3,0,0.6,0.1,0.7,0.2s0.2,0.4,0.2,0.6c0,0.2,0,0.4-0.1,0.6l-1.2,3.4c0,0.1-0.1,0.2-0.1,0.3
			c0,0.2,0.1,0.2,0.2,0.2c0.1,0,0.2-0.1,0.3-0.2c0.1-0.1,0.2-0.4,0.4-0.7l0.2-0.5h0.2l-0.3,0.8c-0.3,0.8-0.8,1.1-1.5,1.1
			c-0.7,0-1-0.3-1-0.9c0-0.2,0.1-0.5,0.2-0.8l1.1-3.2C89.9,207.1,89.9,207,89.9,207z M90.6,203.8c0.2-0.2,0.5-0.3,0.8-0.3
			c0.3,0,0.5,0.1,0.6,0.2c0.1,0.1,0.2,0.3,0.2,0.5c0,0.3-0.1,0.5-0.3,0.7c-0.2,0.2-0.5,0.3-0.8,0.3c-0.3,0-0.5-0.1-0.6-0.2
			c-0.1-0.1-0.2-0.3-0.2-0.5C90.2,204.2,90.3,204,90.6,203.8z"/>
	</g>
</g>
</svg>
