<?xml version="1.0" encoding="utf-8"?>
<!-- Generator: Adobe Illustrator 22.0.1, SVG Export Plug-In . SVG Version: 6.00 Build 0)  -->
<svg version="1.1" id="Layer_1" xmlns="http://www.w3.org/2000/svg" xmlns:xlink="http://www.w3.org/1999/xlink" x="0px" y="0px"
	 viewBox="0 0 560 250" style="enable-background:new 0 0 560 250;" xml:space="preserve">
<style type="text/css">
	.st0{fill:#E7F1D5;}
</style>
<g>
	<path class="st0" d="M141,20.6l-0.8,3c-3.7,0.2-6.5,0.6-8.2,1.2c-1.8,0.6-3.2,1.8-4.2,3.5c-1.1,1.7-2.1,4.5-3.1,8.3l-19.9,74.9
		c-0.9,3.8-1.4,6.3-1.4,7.4c0,2.1,0.7,3.5,2.2,4.2c1.5,0.7,4.2,1.2,8.1,1.4l-0.6,3c-5.4-0.3-13.7-0.5-24.8-0.5
		c-10.2,0-18.1,0.2-23.7,0.5l0.6-3c3.6-0.2,6.3-0.6,8.2-1.2c1.8-0.6,3.2-1.8,4.3-3.5c1.1-1.7,2.1-4.5,3.1-8.3l9.7-36.2H51l-9.7,36.2
		c-0.9,3.8-1.4,6.3-1.4,7.4c0,2.1,0.7,3.5,2.2,4.2c1.5,0.7,4.2,1.2,8.1,1.4l-0.6,3c-5.5-0.3-13.4-0.5-23.7-0.5
		c-11,0-19.2,0.2-24.6,0.5l0.8-3c3.5-0.2,6.2-0.6,7.9-1.2c1.8-0.6,3.2-1.8,4.2-3.5c1.1-1.8,2.1-4.5,3.1-8.2l19.9-74.9
		c0.8-3.4,1.2-5.8,1.2-7.3c0-2.2-0.7-3.7-2.2-4.4c-1.5-0.7-4.1-1.2-7.9-1.4l0.8-3c5.1,0.3,13.3,0.5,24.6,0.5
		c9.7,0,17.6-0.2,23.9-0.5l-0.8,3c-3.7,0.2-6.5,0.6-8.2,1.2c-1.8,0.6-3.2,1.8-4.2,3.5c-1.1,1.7-2.1,4.5-3.1,8.3l-9.5,35.6h39.4
		l9.5-35.6c0.9-3.2,1.4-5.6,1.4-7.3c0-2.2-0.8-3.7-2.3-4.4c-1.5-0.7-4.2-1.2-8-1.4l0.8-3c5.4,0.3,13.3,0.5,23.6,0.5
		C127,21,135.3,20.9,141,20.6z"/>
	<path class="st0" d="M149.1,57.7c0-2-0.9-3-2.7-3s-3.5,0.9-5,2.8c-1.5,1.9-3.1,4.9-4.7,9.1l-3,7.7h-2.9l4.2-11.5
		c3.7-10.4,10.7-15.6,21-15.6c4.6,0,8,1.1,10.1,3.4c2.1,2.3,3.2,5.2,3.2,8.8c0,2.9-0.6,5.9-1.7,8.9l-15.9,46.2
		c-0.6,1.8-0.9,3.3-0.9,4.4c0,2.1,1,3.2,3,3.2c1.5,0,3-0.9,4.6-2.6c1.6-1.7,3.2-4.8,4.9-9.4l2.7-7.2h2.9l-3.9,11
		c-3.5,10.4-10.3,15.6-20.4,15.6c-9.2,0-13.7-4.2-13.7-12.5c0-3.3,0.8-7.1,2.3-11.5l14.8-43.3C148.8,60,149.1,58.5,149.1,57.7z
		 M158.3,14.4c2.9-2.4,6.5-3.6,10.9-3.6c3.5,0,6.3,0.8,8.2,2.5c2,1.7,2.9,4,2.9,6.9c0,4-1.5,7.4-4.5,10c-3,2.6-6.7,3.9-11.2,3.9
		c-3.6,0-6.4-0.9-8.3-2.6c-1.9-1.8-2.8-4.2-2.6-7.2C153.9,20.1,155.4,16.8,158.3,14.4z"/>
	<path class="st0" d="M190.5,126.5c3.8,0,6.9-1.2,9.2-3.5c2.3-2.3,3.5-5.5,3.5-9.5c0-3.2-0.7-6.5-2.1-10c-1.4-3.4-3.5-7.3-6.3-11.6
		c-0.4-0.6-1.6-2.4-3.5-5.4c-2-3-3.4-5.9-4.4-8.7c-1-2.8-1.4-5.5-1.4-8.2c0-6.5,2.4-11.9,7.3-16c4.9-4.1,11.6-6.2,20.2-6.2
		c6.5,0,12,1.2,16.4,3.5c4.4,2.4,6.6,6.4,6.6,12.2c0,2.8-0.8,5.4-2.4,7.7c-1.6,2.3-3.9,3.5-6.8,3.5c-2.5,0-4.5-1-6-2.9
		c-1.5-1.9-2.3-4.3-2.3-7.3c0-2.5,0.5-4.9,1.4-7c0.9-2.2,2-4,3.3-5.5c-1.3-0.8-3.1-1.2-5.3-1.2c-3.6,0-6.5,1.1-8.5,3.4
		c-2.1,2.3-3.1,5.4-3.2,9.4c0,2.7,0.5,5.2,1.6,7.4c1.1,2.2,2.8,5.3,5.4,9.4l2.1,3.2c3.2,5.3,5.5,9.7,6.9,13.1c1.4,3.4,2,6.8,2,10.3
		c0,4.4-1.2,8.4-3.5,11.9c-2.3,3.5-5.6,6.2-9.9,8.2c-4.3,2-9.3,3-15,3c-7.2,0-13.1-1.4-17.8-4.2c-4.7-2.8-7.1-7.2-7.1-13.4
		c0-3,0.8-5.6,2.3-7.7c1.5-2.1,3.6-3.2,6.2-3.2c2.6,0,4.7,1.1,6.3,3.3c1.6,2.2,2.3,5,2.3,8.5c0,2.2-0.3,4.2-0.8,6
		c-0.5,1.8-1.3,3.9-2.3,6.4C186.1,126.1,188.1,126.5,190.5,126.5z"/>
	<path class="st0" d="M259.4,114.7c-0.3,1-0.5,2-0.5,3c0,1.5,0.4,2.6,1.2,3.4c0.8,0.8,1.9,1.1,3.3,1.1c2.2,0,4.4-1.1,6.4-3.2
		c2.1-2.2,3.9-5.4,5.5-9.7l2.3-6.2h2.9l-3,8.8c-3.9,11.9-11.5,17.8-22.7,17.8c-5.1,0-9-1.3-11.6-4c-2.6-2.7-3.9-6.3-3.9-11
		c0-2.9,0.5-5.9,1.4-9.1l15.3-53.2h-13.6l0.8-3H257l6.5-22.5c8.6-0.1,15.9-0.8,21.9-2.1l-7.1,24.6h17.1l-0.5,3h-17.5L259.4,114.7z"
		/>
	<path class="st0" d="M293.1,78.9c3.8-9,9.4-16.5,16.8-22.5c7.4-6,16.2-9.1,26.5-9.1c7.9,0,13.9,2.1,18.1,6.4
		c4.2,4.3,6.3,10.4,6.3,18.5c0,8.3-1.9,16.9-5.7,25.8c-3.8,9-9.4,16.5-16.8,22.5s-16.2,9.1-26.5,9.1c-7.9,0-13.9-2.1-18.1-6.4
		c-4.2-4.3-6.3-10.4-6.3-18.5C287.5,96.5,289.4,87.9,293.1,78.9z M323.4,61.1c-4.4,7.2-8.2,15.9-11.2,26.3c-3,10.4-4.5,20-4.5,29
		c0,3.6,0.4,6.2,1.2,7.9c0.8,1.6,2.1,2.4,3.9,2.4c3.7,0,7.8-3.5,12.2-10.4c4.4-6.9,8.1-15.6,11.1-25.9c3-10.3,4.5-20.1,4.5-29.4
		c0-3.9-0.4-6.7-1.2-8.2c-0.8-1.6-2.1-2.3-3.8-2.3C331.9,50.3,327.9,53.9,323.4,61.1z M342.8,17.9c2.3-3.8,4.1-6.7,5.4-8.5
		c1.3-1.9,2.6-3.5,4.2-5.1c1.1-1.2,2.4-2.2,3.9-2.9c1.5-0.7,3-1.1,4.4-1.1c2.1,0,3.9,0.8,5.4,2.3c1.4,1.4,2.1,2.9,2.1,4.5
		c0,2.6-1.5,5.4-4.4,8.3c-2.4,2.4-6.6,5.5-12.5,9.2c-7,4.5-13.1,8.7-18.1,12.4l-1.5-1.5C335.7,29.6,339.4,23.7,342.8,17.9z"/>
	<path class="st0" d="M435.3,50.7c2.2,2.3,3.2,5.2,3.2,8.8c0,4.3-1.4,8-4.2,11.1c-2.8,3.1-6.2,4.6-10.2,4.6c-2.9,0-5.2-0.8-6.8-2.3
		c-1.6-1.6-2.4-3.8-2.4-6.7c0-3.5,1.2-6.7,3.6-9.6c2.4-2.9,5.4-4.7,8.9-5.5c-0.2,0-0.5-0.1-0.9-0.2c-0.4-0.2-0.8-0.2-1.1-0.2
		c-5.1,0-10.4,3.7-15.7,11.2c-5.3,7.5-10.8,20.7-16.3,39.9l-6.6,25.8h-21.3L384,62.3c0.5-1.6,0.8-3.2,0.8-4.7c0-1.9-0.8-2.9-2.4-2.9
		c-1.9,0-3.6,0.9-5.1,2.7c-1.5,1.8-3.1,4.9-4.7,9.2l-2.9,7.7h-2.9l4.1-11.5c3.7-10.4,10.7-15.6,20.8-15.6c7.8,0,11.6,4.1,11.6,12.2
		c0,2.9-0.4,5.9-1.2,8.9l-1.2,4.8c3.7-9.6,7.5-16.3,11.4-20.2c3.9-3.9,8.5-5.8,14-5.8C430.1,47.3,433.1,48.5,435.3,50.7z"/>
	<path class="st0" d="M454.1,57.7c0-2-0.9-3-2.7-3s-3.5,0.9-5,2.8c-1.5,1.9-3.1,4.9-4.7,9.1l-3,7.7h-2.9l4.2-11.5
		c3.7-10.4,10.7-15.6,21-15.6c4.6,0,8,1.1,10.1,3.4c2.1,2.3,3.2,5.2,3.2,8.8c0,2.9-0.6,5.9-1.7,8.9l-15.9,46.2
		c-0.6,1.8-0.9,3.3-0.9,4.4c0,2.1,1,3.2,3,3.2c1.5,0,3-0.9,4.6-2.6c1.6-1.7,3.2-4.8,4.9-9.4l2.7-7.2h2.9l-3.9,11
		c-3.5,10.4-10.3,15.6-20.4,15.6c-9.2,0-13.7-4.2-13.7-12.5c0-3.3,0.8-7.1,2.3-11.5L453,62.3C453.7,60,454.1,58.5,454.1,57.7z
		 M463.3,14.4c2.9-2.4,6.5-3.6,10.9-3.6c3.5,0,6.3,0.8,8.2,2.5c2,1.7,2.9,4,2.9,6.9c0,4-1.5,7.4-4.5,10c-3,2.6-6.7,3.9-11.2,3.9
		c-3.6,0-6.4-0.9-8.3-2.6c-1.9-1.8-2.8-4.2-2.6-7.2C458.9,20.1,460.4,16.8,463.3,14.4z"/>
	<path class="st0" d="M553.2,103.1h2.9l-3.8,11c-2,5.6-4.8,9.6-8.4,12c-3.6,2.4-7.4,3.5-11.6,3.5c-5.2,0-9-1.6-11.2-4.7
		c-1.4-1.8-2.1-4.3-2.1-7.6c0-2.6,0.5-5.6,1.4-8.9c-3.4,7.5-7.2,12.8-11.4,16.2c-4.2,3.3-8.8,5-13.8,5c-5.5,0-9.7-1.6-12.6-4.9
		c-2.9-3.3-4.3-7.8-4.3-13.7c0-9,2.4-18.5,7.2-28.5c4.8-10,10.8-18.4,18.2-25.1c7.3-6.7,14.5-10.1,21.6-10.1c2.7,0,4.9,0.8,6.6,2.4
		c1.7,1.6,2.6,4,2.9,7.3l2.1-7.4c8.1-0.1,15.4-0.9,21.9-2.3L539,114.7c-0.5,1.7-0.8,3.1-0.8,4.2c0,2.2,1,3.3,2.9,3.3
		c3.5,0,6.6-4,9.4-11.9L553.2,103.1z M533.1,62.9c0.1-0.5,0.2-1.3,0.2-2.3c0-2.5-0.4-4.4-1.3-5.7c-0.9-1.3-2.1-2-3.9-2
		c-3.4,0-7.3,3.1-11.7,9.2c-4.4,6.1-8.1,13.8-11.2,23.1c-3.1,9.3-4.6,18.2-4.6,26.9c0,3.3,0.3,5.7,1,7.2c0.7,1.5,1.7,2.2,3.2,2.2
		c2.2,0,4.7-1.5,7.3-4.6c2.7-3.1,5.3-7.5,8-13.3c2.7-5.8,5-12.7,7-20.6l-0.8,3.6L533.1,62.9z"/>
	<path class="st0" d="M191.6,143.2c3.7,3.2,5.6,8.3,5.6,15.3c0,7.7-2.3,13.8-7,18.5c-4.7,4.7-11.9,8.8-21.7,12.3
		c-4.5,1.7-7.7,2.8-9.4,3.3c4.3,4.6,6.5,10.4,6.5,17.2c0,6.6-2.1,13-6.3,19.1c-4.2,6.1-10.4,11.1-18.6,14.9
		c-8.2,3.8-18.2,5.7-29.8,5.7c-14.1,0-25.5-2.9-34.1-8.6c-8.7-5.7-13-13.9-13-24.5c0-9.8,3.7-18.3,11-25.5
		c7.3-7.3,17.2-12.2,29.6-14.8c-4.4-1.5-7.8-3.6-10-6.4c-2.2-2.8-3.3-5.9-3.3-9.3c0-4,1.4-7.5,4.2-10.3c2.8-2.9,6.5-5,11-6.5
		c4.5-1.5,9.3-2.2,14.2-2.2c6.1,0,10.8,1.1,14.1,3.3c3.3,2.2,4.9,5.1,4.9,8.8c0,3.3-1.2,5.9-3.6,7.8c-2.4,1.9-5.1,2.8-8,2.8v-2.7
		c2.4,0,4.4-0.7,6-2c1.6-1.4,2.3-3.1,2.3-5.4c0-2.4-1-4.4-3-5.8c-2-1.5-4.6-2.2-7.9-2.2c-3.6,0-7,0.9-10.1,2.7
		c-3.1,1.8-5.6,4.4-7.6,7.7c-1.9,3.3-2.9,7-2.9,11.2c0,2.8,0.6,5.4,1.7,7.7c3.6-0.6,6.8-0.9,9.5-0.9c3.6,0,5.4,1.1,5.4,3.2
		c0,1-0.5,1.8-1.4,2.3c-0.9,0.6-2,0.8-3.3,0.8c-2.5,0-6-1.1-10.4-3.3c-5.3,2-9.8,5.9-13.3,11.8c-3.5,5.8-5.3,12.3-5.3,19.5
		c0,9.1,3,16,9.1,20.8c6,4.8,14.4,7.2,25.1,7.2c7.1,0,13.8-1.1,19.9-3.2c6.1-2.1,11.1-5.3,14.9-9.5c3.8-4.2,5.7-9.4,5.7-15.4
		s-1.9-11.1-5.6-15.1l-17.2,5.9c-3.1,0.9-6.3,2-9.7,3.2c-4.4,1.5-7.9,3.3-10.4,5.4c-2.5,2.1-3.8,4.6-3.8,7.6c0,2.8,1,4.9,3.1,6.3
		c2.1,1.4,4.6,2,7.6,2c3.9,0,7.3-1,10-3c2.8-2,4.7-4.1,5.8-6.3l2.3,1.2c-1.5,2.9-3.8,5.5-6.9,7.7c-3.1,2.2-7,3.3-11.8,3.3
		c-5,0-9.3-1.4-12.8-4.2c-3.5-2.8-5.3-7.1-5.3-12.9c0-12.1,8.8-21,26.4-26.7l11-3.6c14.3-4.6,23.9-7.9,28.7-9.7
		c5.8-2.1,10.3-4.3,13.5-6.6s4.8-5.5,4.8-9.6c0-3.7-1.4-6.7-4.3-9.1c-2.9-2.3-6.4-3.5-10.6-3.5c-1.8,0-3.3,0.3-4.4,0.9
		c4.4,1.8,6.6,4.8,6.6,8.9c0,3.2-1.4,5.8-4.2,7.9c-2.8,2-5.9,3-9.4,3c-3.2,0-5.8-0.9-7.9-2.6c-2-1.8-3-4.1-3-6.9
		c0-2.7,0.8-5,2.5-6.9c1.7-1.9,4-3.4,6.9-4.5c3.3-1.4,7.4-2.1,12.2-2.1C182.9,138.5,187.8,140.1,191.6,143.2z"/>
	<path class="st0" d="M306.8,242.1c1.4,1.5,3,2.3,4.8,2.4l-0.6,3c-5.1-0.3-12.4-0.5-21.9-0.5c-10.3,0-17.8,0.2-22.7,0.5l0.6-3
		c3.4-0.2,6.1-0.6,8-1.3c1.9-0.7,3.3-1.9,4.1-3.6c0.8-1.8,1.1-4.4,0.9-7.8l-1.4-24.8h-32.6l-13.3,18.9c-3.2,4.5-4.8,8.3-4.8,11.2
		c0,2.4,1.1,4.2,3.2,5.4c2.2,1.2,5.3,1.8,9.4,2l-0.8,3c-8.5-0.3-15-0.5-19.6-0.5c-3.7,0-7.2,0.2-10.4,0.5l0.6-3
		c2.6-0.7,5.2-2.2,7.6-4.5c2.5-2.3,5.6-6.1,9.4-11.5l63-88.7c0.9,0.1,2.2,0.2,3.9,0.2c1.8,0,3.1,0,3.8-0.2l6,95
		C304.5,238.2,305.4,240.6,306.8,242.1z M278.6,204l-2-40l-28.4,40H278.6z"/>
	<path class="st0" d="M392.1,170.7c2.2,2.3,3.2,5.2,3.2,8.8c0,4.3-1.4,8-4.2,11.1c-2.8,3.1-6.2,4.6-10.2,4.6c-2.9,0-5.2-0.8-6.8-2.3
		c-1.6-1.6-2.4-3.8-2.4-6.7c0-3.5,1.2-6.7,3.6-9.6c2.4-2.9,5.4-4.7,8.9-5.5c-0.2,0-0.5-0.1-0.9-0.2c-0.4-0.2-0.8-0.2-1.1-0.2
		c-5.1,0-10.4,3.7-15.7,11.2c-5.3,7.5-10.8,20.7-16.3,39.9l-6.6,25.8h-21.3l18.4-65.2c0.5-1.6,0.8-3.2,0.8-4.7
		c0-1.9-0.8-2.9-2.4-2.9c-1.9,0-3.6,0.9-5.1,2.7c-1.5,1.8-3.1,4.9-4.7,9.2l-2.9,7.7h-2.9l4.1-11.5c3.7-10.4,10.7-15.6,20.8-15.6
		c7.8,0,11.6,4.1,11.6,12.2c0,2.9-0.4,5.9-1.2,8.9l-1.2,4.8c3.7-9.6,7.5-16.3,11.4-20.2c3.9-3.9,8.5-5.8,14-5.8
		C386.9,167.3,389.9,168.5,392.1,170.7z"/>
	<path class="st0" d="M413.6,234.7c-0.3,1-0.5,2-0.5,3c0,1.5,0.4,2.6,1.2,3.4c0.8,0.8,1.9,1.1,3.3,1.1c2.2,0,4.4-1.1,6.4-3.2
		c2.1-2.2,3.9-5.4,5.5-9.7l2.3-6.2h2.9l-3,8.8c-3.9,11.9-11.5,17.8-22.7,17.8c-5.1,0-9-1.3-11.6-4c-2.6-2.7-3.9-6.3-3.9-11
		c0-2.9,0.5-5.9,1.4-9.1l15.3-53.2h-13.6l0.8-3h13.7l6.5-22.5c8.6-0.1,15.9-0.8,21.9-2.1l-7.1,24.6h17.1l-0.5,3h-17.5L413.6,234.7z"
		/>
	<path class="st0" d="M496.5,201.2c-9.4,6.2-20.2,11.1-32.6,14.5c-0.6,3.4-0.9,6.8-0.9,10.3c0,5.3,1,9.1,2.9,11.3
		c2,2.2,4.9,3.3,8.7,3.3c3.1,0,6.6-1,10.6-2.9s7.8-5.1,11.5-9.4l2.4,1.2c-3.6,5.6-8.5,10.4-14.6,14.3c-6.1,3.9-12.9,5.9-20.5,5.9
		c-6.9,0-12.6-1.9-17.1-5.6c-4.4-3.7-6.6-9-6.6-15.7c0-9,2.4-18.2,7.3-27.8c4.8-9.6,11.4-17.5,19.8-23.8c8.4-6.3,17.5-9.4,27.5-9.4
		c4.6,0,8.4,1,11.3,3.1c2.9,2.1,4.4,5,4.4,8.8C510.6,187.6,505.9,194.9,496.5,201.2z M481.6,176.4c-3.7,4.1-7.2,9.5-10.3,16.1
		c-3.1,6.6-5.4,13.4-6.9,20.3c7.1-3.1,12.7-6.5,16.6-10.1c4-3.6,7.2-7.8,9.5-12.5c2.3-4.7,3.5-9.7,3.5-15c0-1.9-0.2-3.2-0.6-3.9
		c-0.4-0.7-1-1.1-1.8-1.1C488.6,170.2,485.3,172.3,481.6,176.4z"/>
</g>
</svg>
