<?xml version="1.0" encoding="utf-8"?>
<!-- Generator: Adobe Illustrator 22.0.1, SVG Export Plug-In . SVG Version: 6.00 Build 0)  -->
<svg version="1.1" id="Layer_1" xmlns="http://www.w3.org/2000/svg" xmlns:xlink="http://www.w3.org/1999/xlink" x="0px" y="0px"
	 viewBox="0 0 25 25" style="enable-background:new 0 0 25 25;" xml:space="preserve">
<style type="text/css">
	.st0{fill:#B0946E;}
</style>
<g>
	<path class="st0" d="M24.2,18.3c0,0.5-0.1,1-0.4,1.4l-7.4-8.3l7.3-6.4c0.3,0.5,0.5,1,0.5,1.6V18.3z M12.5,13l10.1-8.9
		c-0.4-0.2-0.9-0.4-1.4-0.4H3.7c-0.5,0-1,0.1-1.4,0.4L12.5,13z M15.3,12.5L13,14.5c-0.1,0.1-0.3,0.2-0.5,0.2c-0.2,0-0.3-0.1-0.5-0.2
		l-2.3-2.1l-7.5,8.4c0.4,0.3,1,0.4,1.5,0.4h17.5c0.6,0,1.1-0.2,1.5-0.4L15.3,12.5z M1.3,5.1C1,5.6,0.8,6.1,0.8,6.7v11.7
		c0,0.5,0.1,1,0.4,1.4l7.4-8.3L1.3,5.1z M1.3,5.1"/>
</g>
</svg>
