<?xml version="1.0" encoding="utf-8"?>
<!-- Generator: Adobe Illustrator 22.0.1, SVG Export Plug-In . SVG Version: 6.00 Build 0)  -->
<svg version="1.1" id="Layer_1" xmlns="http://www.w3.org/2000/svg" xmlns:xlink="http://www.w3.org/1999/xlink" x="0px" y="0px"
	 viewBox="0 0 25 25" style="enable-background:new 0 0 25 25;" xml:space="preserve">
<style type="text/css">
	.st0{fill:#B0946E;}
</style>
<g>
	<path class="st0" d="M16.6,2.4H8.4c-3.3,0-6,2.7-6,6v8.2c0,3.3,2.7,6,6,6h8.2c3.3,0,6-2.7,6-6V8.4C22.6,5.1,19.9,2.4,16.6,2.4z
		 M20.6,16.6c0,2.2-1.8,4-4,4H8.4c-2.2,0-4-1.8-4-4V8.4c0-2.2,1.8-4,4-4h8.2c2.2,0,4,1.8,4,4L20.6,16.6L20.6,16.6z"/>
	<path class="st0" d="M12.5,7.3c-2.9,0-5.2,2.3-5.2,5.2s2.3,5.2,5.2,5.2s5.2-2.3,5.2-5.2S15.4,7.3,12.5,7.3z M12.5,15.7
		c-1.8,0-3.2-1.4-3.2-3.2s1.4-3.2,3.2-3.2c1.8,0,3.2,1.4,3.2,3.2C15.7,14.3,14.3,15.7,12.5,15.7z"/>
	<circle class="st0" cx="17.7" cy="7.3" r="1.3"/>
</g>
</svg>
