<?xml version="1.0" encoding="utf-8"?>
<!-- Generator: Adobe Illustrator 22.0.1, SVG Export Plug-In . SVG Version: 6.00 Build 0)  -->
<svg version="1.1" id="Layer_1" xmlns="http://www.w3.org/2000/svg" xmlns:xlink="http://www.w3.org/1999/xlink" x="0px" y="0px"
	 viewBox="0 0 25 25" style="enable-background:new 0 0 25 25;" xml:space="preserve">
<style type="text/css">
	.st0{fill:#B0946E;}
</style>
<path class="st0" d="M17.3,2.9l-2.5,0c-2.8,0-4.6,1.9-4.6,4.7v2.2H7.7c-0.2,0-0.4,0.2-0.4,0.4v3.2c0,0.2,0.2,0.4,0.4,0.4h2.5v8
	c0,0.2,0.2,0.4,0.4,0.4h3.3c0.2,0,0.4-0.2,0.4-0.4v-8h2.9c0.2,0,0.4-0.2,0.4-0.4l0-3.2c0-0.1,0-0.2-0.1-0.3
	c-0.1-0.1-0.2-0.1-0.3-0.1h-2.9V8c0-0.9,0.2-1.3,1.4-1.3l1.7,0c0.2,0,0.4-0.2,0.4-0.4V3.3C17.7,3.1,17.5,2.9,17.3,2.9L17.3,2.9z
	 M17.3,2.9"/>
</svg>
