<?xml version="1.0" encoding="utf-8"?>
<!-- Generator: Adobe Illustrator 22.0.1, SVG Export Plug-In . SVG Version: 6.00 Build 0)  -->
<svg version="1.1" id="Layer_1" xmlns="http://www.w3.org/2000/svg" xmlns:xlink="http://www.w3.org/1999/xlink" x="0px" y="0px"
	 viewBox="0 0 283.3 103.9" style="enable-background:new 0 0 283.3 103.9;" xml:space="preserve">
<style type="text/css">
	.st0{fill:#B0946E;}
</style>
<g>
	<g>
		<g>
			<path class="st0" d="M11.8,77.7c-0.1,0-0.5-0.1-0.8-0.2c-0.2-0.1-0.4-0.1-0.5-0.2c-0.3-0.2-0.6-0.5-0.9-0.7
				c-0.5-0.6-0.8-1.2-1-1.8c-0.2-0.6-0.4-1.3-0.5-1.9c-0.1-0.3-0.1-0.6-0.1-1c0-0.3-0.1-0.6-0.1-1c-0.1-2.6,0.2-5.1,0.6-7.5
				c0.1-0.6,0.2-1.2,0.3-1.8l0.2-0.9l0.2-0.9c0.3-1.2,0.6-2.4,1-3.6c0.7-2.4,1.6-4.7,2.7-7c2.1-4.5,4.8-8.8,8-12.6
				c3.1-3.9,6.7-7.4,10.5-10.6C38.9,19.5,47.6,14.5,57,11c4.7-1.7,9.5-3.1,14.4-3.9c4.9-0.8,10-1.1,15-0.5c2.5,0.3,5,0.9,7.4,1.8
				c2.4,0.9,4.7,2.2,6.6,3.9c2,1.7,3.5,3.8,4.6,6.2c0.5,1.2,0.9,2.4,1.3,3.6c0.3,1.2,0.5,2.5,0.6,3.8c0.1,2.6-0.2,5.1-0.9,7.6
				c-0.7,2.5-1.7,4.8-2.9,7c-2.4,4.4-5.6,8.3-9,11.9c-3.4,3.6-7.2,6.8-11.2,9.8c-4,3-8.1,5.7-12.4,8.1c-4.4,2.4-8.9,4.4-13.7,5.7
				c-2.4,0.7-4.9,1.1-7.4,1.4c-2.3,0.2-4.6,0.2-6.8,0c-0.4,0-0.6-0.4-0.6-0.7h0c0-0.4,0.4-0.6,0.7-0.6c2.2,0.2,4.4,0.2,6.6-0.1
				c2.4-0.3,4.8-0.7,7.1-1.4c4.7-1.3,9.1-3.3,13.4-5.7c4.3-2.4,8.3-5.1,12.2-8.1c3.9-3,7.6-6.2,10.9-9.7c3.3-3.5,6.4-7.4,8.7-11.6
				c1.1-2.1,2.1-4.3,2.7-6.6c0.6-2.3,0.9-4.7,0.8-7c-0.1-1.2-0.3-2.3-0.5-3.5c-0.3-1.1-0.7-2.3-1.2-3.3c-1-2.1-2.4-4-4.2-5.5
				c-1.8-1.5-3.9-2.7-6.1-3.5c-2.2-0.8-4.6-1.4-6.9-1.6C81.3,7.9,76.4,8.2,71.7,9c-4.8,0.8-9.5,2.1-14,3.8
				c-9.1,3.4-17.7,8.3-25.1,14.6c-3.7,3.1-7.2,6.6-10.2,10.3c-3,3.8-5.7,7.9-7.7,12.2c-1,2.2-1.9,4.4-2.7,6.7
				c-0.7,2.3-1.3,4.7-1.7,7c-0.4,2.4-0.8,4.8-0.7,7.1c0,0.3,0,0.6,0,0.9c0,0.3,0,0.6,0.1,0.9c0.1,0.6,0.2,1.1,0.4,1.7
				c0.2,0.5,0.4,1,0.7,1.4c0.2,0.2,0.3,0.4,0.5,0.5c0.1,0.1,0.2,0.1,0.3,0.2c0,0,0.1,0,0.1,0l0.1,0C12.8,76.4,12.4,77.7,11.8,77.7z"
				/>
		</g>
		<g>
			<path class="st0" d="M64.7,49.5c0.4,0,0.7,0.3,0.7,0.7c-0.1,2.5-0.4,5-0.8,7.4c-0.4,2.7-1,5.3-1.5,7.9c-0.5,2.6-1.1,5.2-1.4,7.8
				c-0.2,1.3-0.3,2.6-0.3,3.9c0,0.6,0,1.3,0.1,1.8c0.1,0.4,0.1,0.7,0.2,1c0.1,0.3,0,0.6-0.3,0.8l-0.6,0.3c-0.4,0.2-0.8,0-1-0.4
				c-0.2-0.5-0.3-1-0.3-1.6c-0.1-0.7-0.1-1.5-0.1-2.2c0.1-1.4,0.2-2.8,0.5-4.1c0.4-2.7,1-5.3,1.6-7.9c0.6-2.6,1.2-5.2,1.6-7.8
				c0.4-2.4,0.8-4.8,0.9-7.2C64,49.7,64.3,49.5,64.7,49.5L64.7,49.5z"/>
		</g>
		<g>
			<path class="st0" d="M73.4,79L73.4,79c-0.1-0.4,0.2-0.8,0.6-0.9c1.2-0.3,3.6-1.1,6.2-2.8c-0.3-2,0.5-4.3,2-5.9c2-2,5-3.4,6.6-3.1
				c0.6,0.1,1,0.5,1.2,1c0.2,0.6,0.2,1.4-2.7,4.2c-1.5,1.5-3.5,3.2-5.4,4.5c0.2,0.5,0.6,1,1.3,1.2c2.6,0.9,7.3-1.8,9.6-3.3
				c0.4-0.2,0.8-0.2,1.1,0.2l0,0c0.3,0.4,0.2,0.9-0.2,1.1c-1.9,1.3-7.4,4.6-10.9,3.5c-0.9-0.3-1.7-0.9-2.1-1.8
				c-2.7,1.7-5.1,2.5-6.3,2.8C74,79.8,73.5,79.5,73.4,79z M88.3,67.8c-0.9,0-3.1,0.7-5,2.7c-0.9,1-1.5,2.4-1.6,3.7
				c3.3-2.5,6.1-5.3,6.7-6.3C88.4,67.8,88.4,67.8,88.3,67.8z"/>
		</g>
		<g>
			<path class="st0" d="M101.1,77.4C101,77.4,101,77.4,101.1,77.4c-1.8,0-3.3-0.7-4.2-1.7c-1.1-1.3-1.6-3.3-1.2-5.4
				c0.5-2.5,2-4.6,4.1-5.7c3.8-2,7.4,0.4,9.2,1.9c0.1-0.9,0.3-1.7,0.5-2.3l0-0.1c1-4.4,3.1-7.9,4-8.4c0.2-0.1,0.5-0.1,0.8,0
				c1.2,0.5,1,4.6,0,8.1c-0.5,1.8-1.4,4.4-3.7,7.4c0.3,1.1,0.9,2,2.1,2.3c2.1,0.5,6.6-3.1,10.2-7c0.2-0.3,0.6-0.4,0.9-0.3
				c0.4,0.1,0.7,0.4,0.7,0.8c0.1,0.8,0.7,2.3,2.9,2.7c3,0.5,6.8-1.8,7.5-2.2c0.3-0.2,0.6-0.2,0.9-0.1c0.3,0.1,0.5,0.4,0.6,0.7
				c0.2,1.2,1.4,5.1,6.6,5.1c3.7,0,5.4-1.1,6.3-2.1c0.6-0.7,0.8-1.4,0.8-1.7c-0.5-0.7-4.7-3.2-9.5-1.9c-0.4,0.1-0.8-0.1-1-0.5l0,0
				c-0.1-0.4,0.1-0.9,0.6-1c4-1,7.8,0.1,9.9,1.4c1,0.6,1.5,1.2,1.6,1.8c0.1,0.7-0.2,1.9-1.2,3c-1,1.2-3.2,2.6-7.5,2.6
				c-0.1,0-0.1,0-0.2,0c-5.4-0.1-7.2-3.7-7.8-5.5c-1.7,1-5,2.5-7.9,2c-2.4-0.4-3.4-1.8-3.9-2.9c-2.7,2.8-7.8,7.5-11,6.7
				c-1.5-0.4-2.4-1.3-2.9-2.4c-0.4,0.5-0.8,0.9-1.3,1.4C105.4,77,102.6,77.4,101.1,77.4z M102.9,65.5c-0.8,0-1.6,0.2-2.3,0.6
				c-1.7,0.9-2.9,2.6-3.3,4.6c-0.3,1.6,0,3.2,0.8,4.1c0.6,0.7,1.7,1.1,2.9,1.1c1.2,0,3.6-0.3,6-2.8c0.7-0.7,1.3-1.4,1.9-2.1
				c-0.1-0.8-0.1-1.6-0.1-2.4C108.2,67.9,105.7,65.5,102.9,65.5z M113.5,58.3c-0.8,1.3-1.8,3.5-2.5,6.3l0,0.1
				c-0.3,1.4-0.6,2.8-0.7,4.2c1.3-2.1,1.9-3.9,2.4-5.4C113.4,61.2,113.6,59.4,113.5,58.3z"/>
		</g>
		<g>
			<path class="st0" d="M179.2,75.3c-0.4,0-0.8-0.3-0.8-0.8c0-1.4-0.1-4.6-0.2-7.8c-0.1-9,0.3-9.5,0.6-9.8c0.2-0.2,0.5-0.4,0.8-0.4
				c1.5,0,4.3,2.9,11.4,10.8c6,6.6,11.2,4.9,13.2,3.8c3.1-1.6,4.5-7,4.1-15.1c-0.5-8.8-2.8-13.5-3.7-15.1c-0.2-0.3-0.1-0.8,0.2-1
				l0,0c0.4-0.3,0.9-0.2,1.2,0.2c1,1.8,3.4,6.7,3.9,15.8c0.6,11.2-2.3,15.2-4.9,16.6c-2.3,1.2-8.4,3.3-15.1-4.2
				c-3.7-4.1-8.2-9.1-9.8-10.1c-0.3,2-0.3,9.3,0,16.2C180,74.9,179.6,75.2,179.2,75.3L179.2,75.3z M180.1,57.8"/>
		</g>
		<g>
			<path class="st0" d="M220.7,73.8C220.6,73.8,220.6,73.8,220.7,73.8c-2.6-0.1-4.5-0.9-5.7-2.5c-2-2.5-1.7-6.3-1.5-7.9
				c0.1-0.5,0.5-0.8,1-0.7l0,0c0.4,0.1,0.7,0.5,0.6,0.9c-0.2,1.4-0.4,4.7,1.2,6.7c1,1.2,2.5,1.9,4.5,1.9c0,0,0,0,0,0
				c1.5,0,2.7-0.4,3.7-1.4c2-2,2.3-5.6,2.3-7.2c0-0.4,0.3-0.8,0.8-0.8l0,0c0.5,0,0.8,0.4,0.8,0.8c0,1.8-0.4,5.8-2.8,8.2
				C224.2,73.2,222.6,73.9,220.7,73.8z"/>
		</g>
		<g>
			<path class="st0" d="M270.8,74.5c-0.3,0-0.4,0-0.5-0.2c-0.1-0.2-0.2-0.3,0-0.6c0.2-0.4,0.7-0.8,1.2-1c0.4-0.2,1.1-0.6,2-1.4
				c0.7-0.6,1-1.3,0.6-1.9c-0.3-0.5-1.2-0.8-2.2-0.2c-0.4,0.2-0.9,0.5-1.4,0.8c-2.3,1.4-5.6,3.2-7.9,3.2c0,0,0,0,0,0
				c-1.7,0-3-0.6-3.9-1.4c-1.4,0.7-2.9,1.2-4.4,1c-2.1-0.2-4-2.5-5.4-4.2c-0.4-0.5-0.9-1-1.1-1.3c-0.3,0.2-1,0.8-1.5,1.2
				c-1.4,1.2-2.8,2.5-4.1,2.4c-2.1-0.2-2.8-2.8-3.2-4.3c0,0,0,0,0,0c-0.2,0.2-0.4,0.4-0.6,0.6c-1.7,2-4.5,5.2-7.7,4.7
				c-2.8-0.5-4.3-3.8-4.3-4l1.5-0.6c0,0,1.2,2.7,3.1,3c2.3,0.4,4.7-2.5,6.2-4.2c1-1.1,1.4-1.7,2.1-1.7c0,0,0,0,0,0
				c0.8,0,1,0.8,1.3,1.8c0.3,1.1,0.8,2.9,1.7,2.9c0,0,0,0,0,0c0.6,0,2.1-1.3,2.9-2c1.2-1.1,2-1.8,2.8-1.7c0.6,0.1,1.2,0.8,2.1,1.9
				c1.1,1.4,2.8,3.4,4.3,3.6c1.1,0.1,2.2-0.2,3.3-0.7c-0.3-0.6-0.5-1.2-0.6-1.7c-0.3-2.3,0.8-4.4,2.7-4.9c2.2-0.7,3.1,0.4,3.4,0.9
				c0.7,1.3,0.3,3.3-1,4.5c-0.5,0.5-1.3,1.1-2.1,1.7c0.6,0.4,1.4,0.7,2.4,0.7c0,0,0,0,0,0c1.9,0,5-1.8,7.1-3c0.5-0.3,1-0.6,1.4-0.8
				c1.8-1,3.5-0.4,4.3,0.7c0.7,1,0.7,2.6-0.9,4C272.6,74.1,271.5,74.6,270.8,74.5z M261.1,65.2c-0.3,0-0.6,0.1-0.9,0.1
				c-1.3,0.4-1.8,1.9-1.6,3.2c0.1,0.4,0.2,0.8,0.4,1.2c0.9-0.6,1.6-1.2,2.1-1.6c0.8-0.8,1-2,0.7-2.6
				C261.7,65.3,261.4,65.2,261.1,65.2z M247.6,67.2L247.6,67.2L247.6,67.2z"/>
		</g>
	</g>
	<g>
		<path class="st0" d="M110.3,96.9v-7.4h5.2v1.2h-4v2.3h3.8V94h-3.8v2.9H110.3z"/>
		<path class="st0" d="M129,93.3c0,2-1.2,3.8-3.8,3.8c-2.6,0-3.8-1.9-3.8-3.8c0-2.3,1.6-3.9,3.8-3.9C127.8,89.4,129,91.3,129,93.3z
			 M125.3,96c1.8,0,2.6-1.3,2.6-2.7c0-1.4-0.8-2.8-2.6-2.8c-1.7,0-2.6,1.2-2.6,2.8C122.7,94.6,123.4,96,125.3,96z"/>
		<path class="st0" d="M137,90.6h-2.4v-1.1c2.1,0,3.9,0,6,0v1.1h-2.4v6.3H137V90.6z"/>
		<path class="st0" d="M153.7,93.3c0,2-1.2,3.8-3.8,3.8c-2.6,0-3.8-1.9-3.8-3.8c0-2.3,1.6-3.9,3.8-3.9
			C152.5,89.4,153.7,91.3,153.7,93.3z M149.9,96c1.8,0,2.6-1.3,2.6-2.7c0-1.4-0.8-2.8-2.6-2.8c-1.7,0-2.6,1.2-2.6,2.8
			C147.3,94.6,148.1,96,149.9,96z"/>
		<path class="st0" d="M165.6,91.2c-0.5-0.5-1.3-0.8-2-0.8c-1.7,0-2.7,1.3-2.7,2.9c0,1.4,0.8,2.7,2.7,2.7c0.6,0,1.2-0.2,1.8-0.7
			v-1.5h-2.1v-1.1h3.2v3c-0.7,0.8-1.7,1.3-2.9,1.3c-2.7,0-3.9-1.8-3.9-3.8c0-2.1,1.4-4,3.9-4c1,0,2,0.4,2.7,1.1L165.6,91.2z"/>
		<path class="st0" d="M179.5,96.9h-1.4l-2.3-2.6h-1.6v2.6h-1.2v-7.4c1.2,0,2.3,0,3.4,0c1.7,0,2.6,1.2,2.6,2.4c0,1.1-0.5,2.1-2,2.3
			l2.2,2.5L179.5,96.9z M174.3,90.6v2.7h2.3c1,0,1.4-0.6,1.4-1.3c0-0.7-0.4-1.4-1.4-1.4H174.3z"/>
		<path class="st0" d="M190.9,95.4h-4l-0.7,1.6H185l3.3-7.4h1.3l3.3,7.4h-1.3L190.9,95.4z M188.9,90.8l-1.6,3.5h3.1L188.9,90.8z"/>
		<path class="st0" d="M199,96.9v-7.4h5.2v1.2h-4v2.3h3.8V94h-3.8v2.9H199z"/>
		<path class="st0" d="M210.7,96.9v-7.4h1.2v7.4H210.7z"/>
		<path class="st0" d="M223.9,95.4h-4l-0.7,1.6h-1.3l3.3-7.4h1.3l3.3,7.4h-1.3L223.9,95.4z M221.9,90.8l-1.6,3.5h3.1L221.9,90.8z"/>
	</g>
</g>
</svg>
